%TF.GenerationSoftware,KiCad,Pcbnew,9.0.0*%
%TF.CreationDate,2025-03-13T19:48:29-06:00*%
%TF.ProjectId,electronic,656c6563-7472-46f6-9e69-632e6b696361,rev?*%
%TF.SameCoordinates,Original*%
%TF.FileFunction,Copper,L2,Bot*%
%TF.FilePolarity,Positive*%
%FSLAX46Y46*%
G04 Gerber Fmt 4.6, Leading zero omitted, Abs format (unit mm)*
G04 Created by KiCad (PCBNEW 9.0.0) date 2025-03-13 19:48:29*
%MOMM*%
%LPD*%
G01*
G04 APERTURE LIST*
G04 Aperture macros list*
%AMRoundRect*
0 Rectangle with rounded corners*
0 $1 Rounding radius*
0 $2 $3 $4 $5 $6 $7 $8 $9 X,Y pos of 4 corners*
0 Add a 4 corners polygon primitive as box body*
4,1,4,$2,$3,$4,$5,$6,$7,$8,$9,$2,$3,0*
0 Add four circle primitives for the rounded corners*
1,1,$1+$1,$2,$3*
1,1,$1+$1,$4,$5*
1,1,$1+$1,$6,$7*
1,1,$1+$1,$8,$9*
0 Add four rect primitives between the rounded corners*
20,1,$1+$1,$2,$3,$4,$5,0*
20,1,$1+$1,$4,$5,$6,$7,0*
20,1,$1+$1,$6,$7,$8,$9,0*
20,1,$1+$1,$8,$9,$2,$3,0*%
G04 Aperture macros list end*
%ADD10C,0.100000*%
%ADD11C,0.150000*%
%ADD12C,0.300000*%
%ADD13C,0.400000*%
%TA.AperFunction,ComponentPad*%
%ADD14RoundRect,0.250000X-0.725000X0.600000X-0.725000X-0.600000X0.725000X-0.600000X0.725000X0.600000X0*%
%TD*%
%TA.AperFunction,ComponentPad*%
%ADD15O,1.950000X1.700000*%
%TD*%
%TA.AperFunction,ComponentPad*%
%ADD16RoundRect,0.250000X-0.750000X0.600000X-0.750000X-0.600000X0.750000X-0.600000X0.750000X0.600000X0*%
%TD*%
%TA.AperFunction,ComponentPad*%
%ADD17O,2.000000X1.700000*%
%TD*%
%TA.AperFunction,ComponentPad*%
%ADD18RoundRect,0.250000X0.725000X-0.600000X0.725000X0.600000X-0.725000X0.600000X-0.725000X-0.600000X0*%
%TD*%
%TA.AperFunction,ComponentPad*%
%ADD19RoundRect,0.250000X-0.600000X-0.725000X0.600000X-0.725000X0.600000X0.725000X-0.600000X0.725000X0*%
%TD*%
%TA.AperFunction,ComponentPad*%
%ADD20O,1.700000X1.950000*%
%TD*%
%TA.AperFunction,ComponentPad*%
%ADD21R,4.600000X2.000000*%
%TD*%
%TA.AperFunction,ComponentPad*%
%ADD22O,4.200000X2.000000*%
%TD*%
%TA.AperFunction,ComponentPad*%
%ADD23O,2.000000X4.200000*%
%TD*%
%TA.AperFunction,ComponentPad*%
%ADD24R,2.000000X1.200000*%
%TD*%
%TA.AperFunction,ComponentPad*%
%ADD25O,2.000000X1.200000*%
%TD*%
%TA.AperFunction,ComponentPad*%
%ADD26C,3.600000*%
%TD*%
%TA.AperFunction,ConnectorPad*%
%ADD27C,5.700000*%
%TD*%
%TA.AperFunction,ComponentPad*%
%ADD28RoundRect,0.250000X0.750000X-0.600000X0.750000X0.600000X-0.750000X0.600000X-0.750000X-0.600000X0*%
%TD*%
G04 APERTURE END LIST*
D10*
D11*
X90007200Y-104005800D02*
X198007200Y-104005800D01*
X198007200Y-136005800D01*
X90007200Y-136005800D01*
X90007200Y-104005800D01*
D10*
D11*
X10000000Y-10000000D02*
X200007200Y-10000000D01*
X200007200Y-138005800D01*
X10000000Y-138005800D01*
X10000000Y-10000000D01*
D10*
D11*
X12000000Y-12000000D02*
X198007200Y-12000000D01*
X198007200Y-136005800D01*
X12000000Y-136005800D01*
X12000000Y-12000000D01*
D10*
D11*
X60000000Y-12000000D02*
X60000000Y-10000000D01*
D10*
D11*
X110000000Y-12000000D02*
X110000000Y-10000000D01*
D10*
D11*
X160000000Y-12000000D02*
X160000000Y-10000000D01*
D10*
D11*
X36089160Y-11593604D02*
X35346303Y-11593604D01*
X35717731Y-11593604D02*
X35717731Y-10293604D01*
X35717731Y-10293604D02*
X35593922Y-10479319D01*
X35593922Y-10479319D02*
X35470112Y-10603128D01*
X35470112Y-10603128D02*
X35346303Y-10665033D01*
D10*
D11*
X85346303Y-10417414D02*
X85408207Y-10355509D01*
X85408207Y-10355509D02*
X85532017Y-10293604D01*
X85532017Y-10293604D02*
X85841541Y-10293604D01*
X85841541Y-10293604D02*
X85965350Y-10355509D01*
X85965350Y-10355509D02*
X86027255Y-10417414D01*
X86027255Y-10417414D02*
X86089160Y-10541223D01*
X86089160Y-10541223D02*
X86089160Y-10665033D01*
X86089160Y-10665033D02*
X86027255Y-10850747D01*
X86027255Y-10850747D02*
X85284398Y-11593604D01*
X85284398Y-11593604D02*
X86089160Y-11593604D01*
D10*
D11*
X135284398Y-10293604D02*
X136089160Y-10293604D01*
X136089160Y-10293604D02*
X135655826Y-10788842D01*
X135655826Y-10788842D02*
X135841541Y-10788842D01*
X135841541Y-10788842D02*
X135965350Y-10850747D01*
X135965350Y-10850747D02*
X136027255Y-10912652D01*
X136027255Y-10912652D02*
X136089160Y-11036461D01*
X136089160Y-11036461D02*
X136089160Y-11345985D01*
X136089160Y-11345985D02*
X136027255Y-11469795D01*
X136027255Y-11469795D02*
X135965350Y-11531700D01*
X135965350Y-11531700D02*
X135841541Y-11593604D01*
X135841541Y-11593604D02*
X135470112Y-11593604D01*
X135470112Y-11593604D02*
X135346303Y-11531700D01*
X135346303Y-11531700D02*
X135284398Y-11469795D01*
D10*
D11*
X185965350Y-10726938D02*
X185965350Y-11593604D01*
X185655826Y-10231700D02*
X185346303Y-11160271D01*
X185346303Y-11160271D02*
X186151064Y-11160271D01*
D10*
D11*
X60000000Y-136005800D02*
X60000000Y-138005800D01*
D10*
D11*
X110000000Y-136005800D02*
X110000000Y-138005800D01*
D10*
D11*
X160000000Y-136005800D02*
X160000000Y-138005800D01*
D10*
D11*
X36089160Y-137599404D02*
X35346303Y-137599404D01*
X35717731Y-137599404D02*
X35717731Y-136299404D01*
X35717731Y-136299404D02*
X35593922Y-136485119D01*
X35593922Y-136485119D02*
X35470112Y-136608928D01*
X35470112Y-136608928D02*
X35346303Y-136670833D01*
D10*
D11*
X85346303Y-136423214D02*
X85408207Y-136361309D01*
X85408207Y-136361309D02*
X85532017Y-136299404D01*
X85532017Y-136299404D02*
X85841541Y-136299404D01*
X85841541Y-136299404D02*
X85965350Y-136361309D01*
X85965350Y-136361309D02*
X86027255Y-136423214D01*
X86027255Y-136423214D02*
X86089160Y-136547023D01*
X86089160Y-136547023D02*
X86089160Y-136670833D01*
X86089160Y-136670833D02*
X86027255Y-136856547D01*
X86027255Y-136856547D02*
X85284398Y-137599404D01*
X85284398Y-137599404D02*
X86089160Y-137599404D01*
D10*
D11*
X135284398Y-136299404D02*
X136089160Y-136299404D01*
X136089160Y-136299404D02*
X135655826Y-136794642D01*
X135655826Y-136794642D02*
X135841541Y-136794642D01*
X135841541Y-136794642D02*
X135965350Y-136856547D01*
X135965350Y-136856547D02*
X136027255Y-136918452D01*
X136027255Y-136918452D02*
X136089160Y-137042261D01*
X136089160Y-137042261D02*
X136089160Y-137351785D01*
X136089160Y-137351785D02*
X136027255Y-137475595D01*
X136027255Y-137475595D02*
X135965350Y-137537500D01*
X135965350Y-137537500D02*
X135841541Y-137599404D01*
X135841541Y-137599404D02*
X135470112Y-137599404D01*
X135470112Y-137599404D02*
X135346303Y-137537500D01*
X135346303Y-137537500D02*
X135284398Y-137475595D01*
D10*
D11*
X185965350Y-136732738D02*
X185965350Y-137599404D01*
X185655826Y-136237500D02*
X185346303Y-137166071D01*
X185346303Y-137166071D02*
X186151064Y-137166071D01*
D10*
D11*
X10000000Y-60000000D02*
X12000000Y-60000000D01*
D10*
D11*
X10000000Y-110000000D02*
X12000000Y-110000000D01*
D10*
D11*
X10690476Y-35222176D02*
X11309523Y-35222176D01*
X10566666Y-35593604D02*
X10999999Y-34293604D01*
X10999999Y-34293604D02*
X11433333Y-35593604D01*
D10*
D11*
X11092857Y-84912652D02*
X11278571Y-84974557D01*
X11278571Y-84974557D02*
X11340476Y-85036461D01*
X11340476Y-85036461D02*
X11402380Y-85160271D01*
X11402380Y-85160271D02*
X11402380Y-85345985D01*
X11402380Y-85345985D02*
X11340476Y-85469795D01*
X11340476Y-85469795D02*
X11278571Y-85531700D01*
X11278571Y-85531700D02*
X11154761Y-85593604D01*
X11154761Y-85593604D02*
X10659523Y-85593604D01*
X10659523Y-85593604D02*
X10659523Y-84293604D01*
X10659523Y-84293604D02*
X11092857Y-84293604D01*
X11092857Y-84293604D02*
X11216666Y-84355509D01*
X11216666Y-84355509D02*
X11278571Y-84417414D01*
X11278571Y-84417414D02*
X11340476Y-84541223D01*
X11340476Y-84541223D02*
X11340476Y-84665033D01*
X11340476Y-84665033D02*
X11278571Y-84788842D01*
X11278571Y-84788842D02*
X11216666Y-84850747D01*
X11216666Y-84850747D02*
X11092857Y-84912652D01*
X11092857Y-84912652D02*
X10659523Y-84912652D01*
D10*
D11*
X11402380Y-135469795D02*
X11340476Y-135531700D01*
X11340476Y-135531700D02*
X11154761Y-135593604D01*
X11154761Y-135593604D02*
X11030952Y-135593604D01*
X11030952Y-135593604D02*
X10845238Y-135531700D01*
X10845238Y-135531700D02*
X10721428Y-135407890D01*
X10721428Y-135407890D02*
X10659523Y-135284080D01*
X10659523Y-135284080D02*
X10597619Y-135036461D01*
X10597619Y-135036461D02*
X10597619Y-134850747D01*
X10597619Y-134850747D02*
X10659523Y-134603128D01*
X10659523Y-134603128D02*
X10721428Y-134479319D01*
X10721428Y-134479319D02*
X10845238Y-134355509D01*
X10845238Y-134355509D02*
X11030952Y-134293604D01*
X11030952Y-134293604D02*
X11154761Y-134293604D01*
X11154761Y-134293604D02*
X11340476Y-134355509D01*
X11340476Y-134355509D02*
X11402380Y-134417414D01*
D10*
D11*
X200007200Y-60000000D02*
X198007200Y-60000000D01*
D10*
D11*
X200007200Y-110000000D02*
X198007200Y-110000000D01*
D10*
D11*
X198697676Y-35222176D02*
X199316723Y-35222176D01*
X198573866Y-35593604D02*
X199007199Y-34293604D01*
X199007199Y-34293604D02*
X199440533Y-35593604D01*
D10*
D11*
X199100057Y-84912652D02*
X199285771Y-84974557D01*
X199285771Y-84974557D02*
X199347676Y-85036461D01*
X199347676Y-85036461D02*
X199409580Y-85160271D01*
X199409580Y-85160271D02*
X199409580Y-85345985D01*
X199409580Y-85345985D02*
X199347676Y-85469795D01*
X199347676Y-85469795D02*
X199285771Y-85531700D01*
X199285771Y-85531700D02*
X199161961Y-85593604D01*
X199161961Y-85593604D02*
X198666723Y-85593604D01*
X198666723Y-85593604D02*
X198666723Y-84293604D01*
X198666723Y-84293604D02*
X199100057Y-84293604D01*
X199100057Y-84293604D02*
X199223866Y-84355509D01*
X199223866Y-84355509D02*
X199285771Y-84417414D01*
X199285771Y-84417414D02*
X199347676Y-84541223D01*
X199347676Y-84541223D02*
X199347676Y-84665033D01*
X199347676Y-84665033D02*
X199285771Y-84788842D01*
X199285771Y-84788842D02*
X199223866Y-84850747D01*
X199223866Y-84850747D02*
X199100057Y-84912652D01*
X199100057Y-84912652D02*
X198666723Y-84912652D01*
D10*
D11*
X199409580Y-135469795D02*
X199347676Y-135531700D01*
X199347676Y-135531700D02*
X199161961Y-135593604D01*
X199161961Y-135593604D02*
X199038152Y-135593604D01*
X199038152Y-135593604D02*
X198852438Y-135531700D01*
X198852438Y-135531700D02*
X198728628Y-135407890D01*
X198728628Y-135407890D02*
X198666723Y-135284080D01*
X198666723Y-135284080D02*
X198604819Y-135036461D01*
X198604819Y-135036461D02*
X198604819Y-134850747D01*
X198604819Y-134850747D02*
X198666723Y-134603128D01*
X198666723Y-134603128D02*
X198728628Y-134479319D01*
X198728628Y-134479319D02*
X198852438Y-134355509D01*
X198852438Y-134355509D02*
X199038152Y-134293604D01*
X199038152Y-134293604D02*
X199161961Y-134293604D01*
X199161961Y-134293604D02*
X199347676Y-134355509D01*
X199347676Y-134355509D02*
X199409580Y-134417414D01*
D10*
D11*
X113463026Y-131791928D02*
X113463026Y-130291928D01*
X113463026Y-130291928D02*
X113820169Y-130291928D01*
X113820169Y-130291928D02*
X114034455Y-130363357D01*
X114034455Y-130363357D02*
X114177312Y-130506214D01*
X114177312Y-130506214D02*
X114248741Y-130649071D01*
X114248741Y-130649071D02*
X114320169Y-130934785D01*
X114320169Y-130934785D02*
X114320169Y-131149071D01*
X114320169Y-131149071D02*
X114248741Y-131434785D01*
X114248741Y-131434785D02*
X114177312Y-131577642D01*
X114177312Y-131577642D02*
X114034455Y-131720500D01*
X114034455Y-131720500D02*
X113820169Y-131791928D01*
X113820169Y-131791928D02*
X113463026Y-131791928D01*
X115605884Y-131791928D02*
X115605884Y-131006214D01*
X115605884Y-131006214D02*
X115534455Y-130863357D01*
X115534455Y-130863357D02*
X115391598Y-130791928D01*
X115391598Y-130791928D02*
X115105884Y-130791928D01*
X115105884Y-130791928D02*
X114963026Y-130863357D01*
X115605884Y-131720500D02*
X115463026Y-131791928D01*
X115463026Y-131791928D02*
X115105884Y-131791928D01*
X115105884Y-131791928D02*
X114963026Y-131720500D01*
X114963026Y-131720500D02*
X114891598Y-131577642D01*
X114891598Y-131577642D02*
X114891598Y-131434785D01*
X114891598Y-131434785D02*
X114963026Y-131291928D01*
X114963026Y-131291928D02*
X115105884Y-131220500D01*
X115105884Y-131220500D02*
X115463026Y-131220500D01*
X115463026Y-131220500D02*
X115605884Y-131149071D01*
X116105884Y-130791928D02*
X116677312Y-130791928D01*
X116320169Y-130291928D02*
X116320169Y-131577642D01*
X116320169Y-131577642D02*
X116391598Y-131720500D01*
X116391598Y-131720500D02*
X116534455Y-131791928D01*
X116534455Y-131791928D02*
X116677312Y-131791928D01*
X117748741Y-131720500D02*
X117605884Y-131791928D01*
X117605884Y-131791928D02*
X117320170Y-131791928D01*
X117320170Y-131791928D02*
X117177312Y-131720500D01*
X117177312Y-131720500D02*
X117105884Y-131577642D01*
X117105884Y-131577642D02*
X117105884Y-131006214D01*
X117105884Y-131006214D02*
X117177312Y-130863357D01*
X117177312Y-130863357D02*
X117320170Y-130791928D01*
X117320170Y-130791928D02*
X117605884Y-130791928D01*
X117605884Y-130791928D02*
X117748741Y-130863357D01*
X117748741Y-130863357D02*
X117820170Y-131006214D01*
X117820170Y-131006214D02*
X117820170Y-131149071D01*
X117820170Y-131149071D02*
X117105884Y-131291928D01*
X118463026Y-131649071D02*
X118534455Y-131720500D01*
X118534455Y-131720500D02*
X118463026Y-131791928D01*
X118463026Y-131791928D02*
X118391598Y-131720500D01*
X118391598Y-131720500D02*
X118463026Y-131649071D01*
X118463026Y-131649071D02*
X118463026Y-131791928D01*
X118463026Y-130863357D02*
X118534455Y-130934785D01*
X118534455Y-130934785D02*
X118463026Y-131006214D01*
X118463026Y-131006214D02*
X118391598Y-130934785D01*
X118391598Y-130934785D02*
X118463026Y-130863357D01*
X118463026Y-130863357D02*
X118463026Y-131006214D01*
X121105884Y-131791928D02*
X120248741Y-131791928D01*
X120677312Y-131791928D02*
X120677312Y-130291928D01*
X120677312Y-130291928D02*
X120534455Y-130506214D01*
X120534455Y-130506214D02*
X120391598Y-130649071D01*
X120391598Y-130649071D02*
X120248741Y-130720500D01*
X121605883Y-130291928D02*
X122534455Y-130291928D01*
X122534455Y-130291928D02*
X122034455Y-130863357D01*
X122034455Y-130863357D02*
X122248740Y-130863357D01*
X122248740Y-130863357D02*
X122391598Y-130934785D01*
X122391598Y-130934785D02*
X122463026Y-131006214D01*
X122463026Y-131006214D02*
X122534455Y-131149071D01*
X122534455Y-131149071D02*
X122534455Y-131506214D01*
X122534455Y-131506214D02*
X122463026Y-131649071D01*
X122463026Y-131649071D02*
X122391598Y-131720500D01*
X122391598Y-131720500D02*
X122248740Y-131791928D01*
X122248740Y-131791928D02*
X121820169Y-131791928D01*
X121820169Y-131791928D02*
X121677312Y-131720500D01*
X121677312Y-131720500D02*
X121605883Y-131649071D01*
X124248740Y-130220500D02*
X122963026Y-132149071D01*
X125034455Y-130291928D02*
X125177312Y-130291928D01*
X125177312Y-130291928D02*
X125320169Y-130363357D01*
X125320169Y-130363357D02*
X125391598Y-130434785D01*
X125391598Y-130434785D02*
X125463026Y-130577642D01*
X125463026Y-130577642D02*
X125534455Y-130863357D01*
X125534455Y-130863357D02*
X125534455Y-131220500D01*
X125534455Y-131220500D02*
X125463026Y-131506214D01*
X125463026Y-131506214D02*
X125391598Y-131649071D01*
X125391598Y-131649071D02*
X125320169Y-131720500D01*
X125320169Y-131720500D02*
X125177312Y-131791928D01*
X125177312Y-131791928D02*
X125034455Y-131791928D01*
X125034455Y-131791928D02*
X124891598Y-131720500D01*
X124891598Y-131720500D02*
X124820169Y-131649071D01*
X124820169Y-131649071D02*
X124748740Y-131506214D01*
X124748740Y-131506214D02*
X124677312Y-131220500D01*
X124677312Y-131220500D02*
X124677312Y-130863357D01*
X124677312Y-130863357D02*
X124748740Y-130577642D01*
X124748740Y-130577642D02*
X124820169Y-130434785D01*
X124820169Y-130434785D02*
X124891598Y-130363357D01*
X124891598Y-130363357D02*
X125034455Y-130291928D01*
X126034454Y-130291928D02*
X126963026Y-130291928D01*
X126963026Y-130291928D02*
X126463026Y-130863357D01*
X126463026Y-130863357D02*
X126677311Y-130863357D01*
X126677311Y-130863357D02*
X126820169Y-130934785D01*
X126820169Y-130934785D02*
X126891597Y-131006214D01*
X126891597Y-131006214D02*
X126963026Y-131149071D01*
X126963026Y-131149071D02*
X126963026Y-131506214D01*
X126963026Y-131506214D02*
X126891597Y-131649071D01*
X126891597Y-131649071D02*
X126820169Y-131720500D01*
X126820169Y-131720500D02*
X126677311Y-131791928D01*
X126677311Y-131791928D02*
X126248740Y-131791928D01*
X126248740Y-131791928D02*
X126105883Y-131720500D01*
X126105883Y-131720500D02*
X126034454Y-131649071D01*
X128677311Y-130220500D02*
X127391597Y-132149071D01*
X129105883Y-130434785D02*
X129177311Y-130363357D01*
X129177311Y-130363357D02*
X129320169Y-130291928D01*
X129320169Y-130291928D02*
X129677311Y-130291928D01*
X129677311Y-130291928D02*
X129820169Y-130363357D01*
X129820169Y-130363357D02*
X129891597Y-130434785D01*
X129891597Y-130434785D02*
X129963026Y-130577642D01*
X129963026Y-130577642D02*
X129963026Y-130720500D01*
X129963026Y-130720500D02*
X129891597Y-130934785D01*
X129891597Y-130934785D02*
X129034454Y-131791928D01*
X129034454Y-131791928D02*
X129963026Y-131791928D01*
X131320168Y-130291928D02*
X130605882Y-130291928D01*
X130605882Y-130291928D02*
X130534454Y-131006214D01*
X130534454Y-131006214D02*
X130605882Y-130934785D01*
X130605882Y-130934785D02*
X130748740Y-130863357D01*
X130748740Y-130863357D02*
X131105882Y-130863357D01*
X131105882Y-130863357D02*
X131248740Y-130934785D01*
X131248740Y-130934785D02*
X131320168Y-131006214D01*
X131320168Y-131006214D02*
X131391597Y-131149071D01*
X131391597Y-131149071D02*
X131391597Y-131506214D01*
X131391597Y-131506214D02*
X131320168Y-131649071D01*
X131320168Y-131649071D02*
X131248740Y-131720500D01*
X131248740Y-131720500D02*
X131105882Y-131791928D01*
X131105882Y-131791928D02*
X130748740Y-131791928D01*
X130748740Y-131791928D02*
X130605882Y-131720500D01*
X130605882Y-131720500D02*
X130534454Y-131649071D01*
D10*
D11*
X90007200Y-132505800D02*
X198007200Y-132505800D01*
D10*
D11*
X91463026Y-134591928D02*
X91463026Y-133091928D01*
X92320169Y-134591928D02*
X91677312Y-133734785D01*
X92320169Y-133091928D02*
X91463026Y-133949071D01*
X92963026Y-134591928D02*
X92963026Y-133591928D01*
X92963026Y-133091928D02*
X92891598Y-133163357D01*
X92891598Y-133163357D02*
X92963026Y-133234785D01*
X92963026Y-133234785D02*
X93034455Y-133163357D01*
X93034455Y-133163357D02*
X92963026Y-133091928D01*
X92963026Y-133091928D02*
X92963026Y-133234785D01*
X94534455Y-134449071D02*
X94463027Y-134520500D01*
X94463027Y-134520500D02*
X94248741Y-134591928D01*
X94248741Y-134591928D02*
X94105884Y-134591928D01*
X94105884Y-134591928D02*
X93891598Y-134520500D01*
X93891598Y-134520500D02*
X93748741Y-134377642D01*
X93748741Y-134377642D02*
X93677312Y-134234785D01*
X93677312Y-134234785D02*
X93605884Y-133949071D01*
X93605884Y-133949071D02*
X93605884Y-133734785D01*
X93605884Y-133734785D02*
X93677312Y-133449071D01*
X93677312Y-133449071D02*
X93748741Y-133306214D01*
X93748741Y-133306214D02*
X93891598Y-133163357D01*
X93891598Y-133163357D02*
X94105884Y-133091928D01*
X94105884Y-133091928D02*
X94248741Y-133091928D01*
X94248741Y-133091928D02*
X94463027Y-133163357D01*
X94463027Y-133163357D02*
X94534455Y-133234785D01*
X95820170Y-134591928D02*
X95820170Y-133806214D01*
X95820170Y-133806214D02*
X95748741Y-133663357D01*
X95748741Y-133663357D02*
X95605884Y-133591928D01*
X95605884Y-133591928D02*
X95320170Y-133591928D01*
X95320170Y-133591928D02*
X95177312Y-133663357D01*
X95820170Y-134520500D02*
X95677312Y-134591928D01*
X95677312Y-134591928D02*
X95320170Y-134591928D01*
X95320170Y-134591928D02*
X95177312Y-134520500D01*
X95177312Y-134520500D02*
X95105884Y-134377642D01*
X95105884Y-134377642D02*
X95105884Y-134234785D01*
X95105884Y-134234785D02*
X95177312Y-134091928D01*
X95177312Y-134091928D02*
X95320170Y-134020500D01*
X95320170Y-134020500D02*
X95677312Y-134020500D01*
X95677312Y-134020500D02*
X95820170Y-133949071D01*
X97177313Y-134591928D02*
X97177313Y-133091928D01*
X97177313Y-134520500D02*
X97034455Y-134591928D01*
X97034455Y-134591928D02*
X96748741Y-134591928D01*
X96748741Y-134591928D02*
X96605884Y-134520500D01*
X96605884Y-134520500D02*
X96534455Y-134449071D01*
X96534455Y-134449071D02*
X96463027Y-134306214D01*
X96463027Y-134306214D02*
X96463027Y-133877642D01*
X96463027Y-133877642D02*
X96534455Y-133734785D01*
X96534455Y-133734785D02*
X96605884Y-133663357D01*
X96605884Y-133663357D02*
X96748741Y-133591928D01*
X96748741Y-133591928D02*
X97034455Y-133591928D01*
X97034455Y-133591928D02*
X97177313Y-133663357D01*
X99034455Y-133806214D02*
X99534455Y-133806214D01*
X99748741Y-134591928D02*
X99034455Y-134591928D01*
X99034455Y-134591928D02*
X99034455Y-133091928D01*
X99034455Y-133091928D02*
X99748741Y-133091928D01*
X100391598Y-134449071D02*
X100463027Y-134520500D01*
X100463027Y-134520500D02*
X100391598Y-134591928D01*
X100391598Y-134591928D02*
X100320170Y-134520500D01*
X100320170Y-134520500D02*
X100391598Y-134449071D01*
X100391598Y-134449071D02*
X100391598Y-134591928D01*
X101105884Y-134591928D02*
X101105884Y-133091928D01*
X101105884Y-133091928D02*
X101463027Y-133091928D01*
X101463027Y-133091928D02*
X101677313Y-133163357D01*
X101677313Y-133163357D02*
X101820170Y-133306214D01*
X101820170Y-133306214D02*
X101891599Y-133449071D01*
X101891599Y-133449071D02*
X101963027Y-133734785D01*
X101963027Y-133734785D02*
X101963027Y-133949071D01*
X101963027Y-133949071D02*
X101891599Y-134234785D01*
X101891599Y-134234785D02*
X101820170Y-134377642D01*
X101820170Y-134377642D02*
X101677313Y-134520500D01*
X101677313Y-134520500D02*
X101463027Y-134591928D01*
X101463027Y-134591928D02*
X101105884Y-134591928D01*
X102605884Y-134449071D02*
X102677313Y-134520500D01*
X102677313Y-134520500D02*
X102605884Y-134591928D01*
X102605884Y-134591928D02*
X102534456Y-134520500D01*
X102534456Y-134520500D02*
X102605884Y-134449071D01*
X102605884Y-134449071D02*
X102605884Y-134591928D01*
X103248742Y-134163357D02*
X103963028Y-134163357D01*
X103105885Y-134591928D02*
X103605885Y-133091928D01*
X103605885Y-133091928D02*
X104105885Y-134591928D01*
X104605884Y-134449071D02*
X104677313Y-134520500D01*
X104677313Y-134520500D02*
X104605884Y-134591928D01*
X104605884Y-134591928D02*
X104534456Y-134520500D01*
X104534456Y-134520500D02*
X104605884Y-134449071D01*
X104605884Y-134449071D02*
X104605884Y-134591928D01*
X106534456Y-134591928D02*
X106820170Y-134591928D01*
X106820170Y-134591928D02*
X106963027Y-134520500D01*
X106963027Y-134520500D02*
X107034456Y-134449071D01*
X107034456Y-134449071D02*
X107177313Y-134234785D01*
X107177313Y-134234785D02*
X107248742Y-133949071D01*
X107248742Y-133949071D02*
X107248742Y-133377642D01*
X107248742Y-133377642D02*
X107177313Y-133234785D01*
X107177313Y-133234785D02*
X107105885Y-133163357D01*
X107105885Y-133163357D02*
X106963027Y-133091928D01*
X106963027Y-133091928D02*
X106677313Y-133091928D01*
X106677313Y-133091928D02*
X106534456Y-133163357D01*
X106534456Y-133163357D02*
X106463027Y-133234785D01*
X106463027Y-133234785D02*
X106391599Y-133377642D01*
X106391599Y-133377642D02*
X106391599Y-133734785D01*
X106391599Y-133734785D02*
X106463027Y-133877642D01*
X106463027Y-133877642D02*
X106534456Y-133949071D01*
X106534456Y-133949071D02*
X106677313Y-134020500D01*
X106677313Y-134020500D02*
X106963027Y-134020500D01*
X106963027Y-134020500D02*
X107105885Y-133949071D01*
X107105885Y-133949071D02*
X107177313Y-133877642D01*
X107177313Y-133877642D02*
X107248742Y-133734785D01*
X107891598Y-134449071D02*
X107963027Y-134520500D01*
X107963027Y-134520500D02*
X107891598Y-134591928D01*
X107891598Y-134591928D02*
X107820170Y-134520500D01*
X107820170Y-134520500D02*
X107891598Y-134449071D01*
X107891598Y-134449071D02*
X107891598Y-134591928D01*
X108891599Y-133091928D02*
X109034456Y-133091928D01*
X109034456Y-133091928D02*
X109177313Y-133163357D01*
X109177313Y-133163357D02*
X109248742Y-133234785D01*
X109248742Y-133234785D02*
X109320170Y-133377642D01*
X109320170Y-133377642D02*
X109391599Y-133663357D01*
X109391599Y-133663357D02*
X109391599Y-134020500D01*
X109391599Y-134020500D02*
X109320170Y-134306214D01*
X109320170Y-134306214D02*
X109248742Y-134449071D01*
X109248742Y-134449071D02*
X109177313Y-134520500D01*
X109177313Y-134520500D02*
X109034456Y-134591928D01*
X109034456Y-134591928D02*
X108891599Y-134591928D01*
X108891599Y-134591928D02*
X108748742Y-134520500D01*
X108748742Y-134520500D02*
X108677313Y-134449071D01*
X108677313Y-134449071D02*
X108605884Y-134306214D01*
X108605884Y-134306214D02*
X108534456Y-134020500D01*
X108534456Y-134020500D02*
X108534456Y-133663357D01*
X108534456Y-133663357D02*
X108605884Y-133377642D01*
X108605884Y-133377642D02*
X108677313Y-133234785D01*
X108677313Y-133234785D02*
X108748742Y-133163357D01*
X108748742Y-133163357D02*
X108891599Y-133091928D01*
X110034455Y-134449071D02*
X110105884Y-134520500D01*
X110105884Y-134520500D02*
X110034455Y-134591928D01*
X110034455Y-134591928D02*
X109963027Y-134520500D01*
X109963027Y-134520500D02*
X110034455Y-134449071D01*
X110034455Y-134449071D02*
X110034455Y-134591928D01*
X111034456Y-133091928D02*
X111177313Y-133091928D01*
X111177313Y-133091928D02*
X111320170Y-133163357D01*
X111320170Y-133163357D02*
X111391599Y-133234785D01*
X111391599Y-133234785D02*
X111463027Y-133377642D01*
X111463027Y-133377642D02*
X111534456Y-133663357D01*
X111534456Y-133663357D02*
X111534456Y-134020500D01*
X111534456Y-134020500D02*
X111463027Y-134306214D01*
X111463027Y-134306214D02*
X111391599Y-134449071D01*
X111391599Y-134449071D02*
X111320170Y-134520500D01*
X111320170Y-134520500D02*
X111177313Y-134591928D01*
X111177313Y-134591928D02*
X111034456Y-134591928D01*
X111034456Y-134591928D02*
X110891599Y-134520500D01*
X110891599Y-134520500D02*
X110820170Y-134449071D01*
X110820170Y-134449071D02*
X110748741Y-134306214D01*
X110748741Y-134306214D02*
X110677313Y-134020500D01*
X110677313Y-134020500D02*
X110677313Y-133663357D01*
X110677313Y-133663357D02*
X110748741Y-133377642D01*
X110748741Y-133377642D02*
X110820170Y-133234785D01*
X110820170Y-133234785D02*
X110891599Y-133163357D01*
X110891599Y-133163357D02*
X111034456Y-133091928D01*
D10*
D11*
X90007200Y-129505800D02*
X198007200Y-129505800D01*
D10*
D12*
X177418853Y-131784128D02*
X176918853Y-131069842D01*
X176561710Y-131784128D02*
X176561710Y-130284128D01*
X176561710Y-130284128D02*
X177133139Y-130284128D01*
X177133139Y-130284128D02*
X177275996Y-130355557D01*
X177275996Y-130355557D02*
X177347425Y-130426985D01*
X177347425Y-130426985D02*
X177418853Y-130569842D01*
X177418853Y-130569842D02*
X177418853Y-130784128D01*
X177418853Y-130784128D02*
X177347425Y-130926985D01*
X177347425Y-130926985D02*
X177275996Y-130998414D01*
X177275996Y-130998414D02*
X177133139Y-131069842D01*
X177133139Y-131069842D02*
X176561710Y-131069842D01*
X178633139Y-131712700D02*
X178490282Y-131784128D01*
X178490282Y-131784128D02*
X178204568Y-131784128D01*
X178204568Y-131784128D02*
X178061710Y-131712700D01*
X178061710Y-131712700D02*
X177990282Y-131569842D01*
X177990282Y-131569842D02*
X177990282Y-130998414D01*
X177990282Y-130998414D02*
X178061710Y-130855557D01*
X178061710Y-130855557D02*
X178204568Y-130784128D01*
X178204568Y-130784128D02*
X178490282Y-130784128D01*
X178490282Y-130784128D02*
X178633139Y-130855557D01*
X178633139Y-130855557D02*
X178704568Y-130998414D01*
X178704568Y-130998414D02*
X178704568Y-131141271D01*
X178704568Y-131141271D02*
X177990282Y-131284128D01*
X179204567Y-130784128D02*
X179561710Y-131784128D01*
X179561710Y-131784128D02*
X179918853Y-130784128D01*
X180490281Y-131641271D02*
X180561710Y-131712700D01*
X180561710Y-131712700D02*
X180490281Y-131784128D01*
X180490281Y-131784128D02*
X180418853Y-131712700D01*
X180418853Y-131712700D02*
X180490281Y-131641271D01*
X180490281Y-131641271D02*
X180490281Y-131784128D01*
X180490281Y-130855557D02*
X180561710Y-130926985D01*
X180561710Y-130926985D02*
X180490281Y-130998414D01*
X180490281Y-130998414D02*
X180418853Y-130926985D01*
X180418853Y-130926985D02*
X180490281Y-130855557D01*
X180490281Y-130855557D02*
X180490281Y-130998414D01*
D10*
D11*
X91391598Y-131720500D02*
X91605884Y-131791928D01*
X91605884Y-131791928D02*
X91963026Y-131791928D01*
X91963026Y-131791928D02*
X92105884Y-131720500D01*
X92105884Y-131720500D02*
X92177312Y-131649071D01*
X92177312Y-131649071D02*
X92248741Y-131506214D01*
X92248741Y-131506214D02*
X92248741Y-131363357D01*
X92248741Y-131363357D02*
X92177312Y-131220500D01*
X92177312Y-131220500D02*
X92105884Y-131149071D01*
X92105884Y-131149071D02*
X91963026Y-131077642D01*
X91963026Y-131077642D02*
X91677312Y-131006214D01*
X91677312Y-131006214D02*
X91534455Y-130934785D01*
X91534455Y-130934785D02*
X91463026Y-130863357D01*
X91463026Y-130863357D02*
X91391598Y-130720500D01*
X91391598Y-130720500D02*
X91391598Y-130577642D01*
X91391598Y-130577642D02*
X91463026Y-130434785D01*
X91463026Y-130434785D02*
X91534455Y-130363357D01*
X91534455Y-130363357D02*
X91677312Y-130291928D01*
X91677312Y-130291928D02*
X92034455Y-130291928D01*
X92034455Y-130291928D02*
X92248741Y-130363357D01*
X92891597Y-131791928D02*
X92891597Y-130791928D01*
X92891597Y-130291928D02*
X92820169Y-130363357D01*
X92820169Y-130363357D02*
X92891597Y-130434785D01*
X92891597Y-130434785D02*
X92963026Y-130363357D01*
X92963026Y-130363357D02*
X92891597Y-130291928D01*
X92891597Y-130291928D02*
X92891597Y-130434785D01*
X93463026Y-130791928D02*
X94248741Y-130791928D01*
X94248741Y-130791928D02*
X93463026Y-131791928D01*
X93463026Y-131791928D02*
X94248741Y-131791928D01*
X95391598Y-131720500D02*
X95248741Y-131791928D01*
X95248741Y-131791928D02*
X94963027Y-131791928D01*
X94963027Y-131791928D02*
X94820169Y-131720500D01*
X94820169Y-131720500D02*
X94748741Y-131577642D01*
X94748741Y-131577642D02*
X94748741Y-131006214D01*
X94748741Y-131006214D02*
X94820169Y-130863357D01*
X94820169Y-130863357D02*
X94963027Y-130791928D01*
X94963027Y-130791928D02*
X95248741Y-130791928D01*
X95248741Y-130791928D02*
X95391598Y-130863357D01*
X95391598Y-130863357D02*
X95463027Y-131006214D01*
X95463027Y-131006214D02*
X95463027Y-131149071D01*
X95463027Y-131149071D02*
X94748741Y-131291928D01*
X96105883Y-131649071D02*
X96177312Y-131720500D01*
X96177312Y-131720500D02*
X96105883Y-131791928D01*
X96105883Y-131791928D02*
X96034455Y-131720500D01*
X96034455Y-131720500D02*
X96105883Y-131649071D01*
X96105883Y-131649071D02*
X96105883Y-131791928D01*
X96105883Y-130863357D02*
X96177312Y-130934785D01*
X96177312Y-130934785D02*
X96105883Y-131006214D01*
X96105883Y-131006214D02*
X96034455Y-130934785D01*
X96034455Y-130934785D02*
X96105883Y-130863357D01*
X96105883Y-130863357D02*
X96105883Y-131006214D01*
X97891598Y-131363357D02*
X98605884Y-131363357D01*
X97748741Y-131791928D02*
X98248741Y-130291928D01*
X98248741Y-130291928D02*
X98748741Y-131791928D01*
X99963026Y-130291928D02*
X99248740Y-130291928D01*
X99248740Y-130291928D02*
X99177312Y-131006214D01*
X99177312Y-131006214D02*
X99248740Y-130934785D01*
X99248740Y-130934785D02*
X99391598Y-130863357D01*
X99391598Y-130863357D02*
X99748740Y-130863357D01*
X99748740Y-130863357D02*
X99891598Y-130934785D01*
X99891598Y-130934785D02*
X99963026Y-131006214D01*
X99963026Y-131006214D02*
X100034455Y-131149071D01*
X100034455Y-131149071D02*
X100034455Y-131506214D01*
X100034455Y-131506214D02*
X99963026Y-131649071D01*
X99963026Y-131649071D02*
X99891598Y-131720500D01*
X99891598Y-131720500D02*
X99748740Y-131791928D01*
X99748740Y-131791928D02*
X99391598Y-131791928D01*
X99391598Y-131791928D02*
X99248740Y-131720500D01*
X99248740Y-131720500D02*
X99177312Y-131649071D01*
D10*
D11*
X176463026Y-134591928D02*
X176463026Y-133091928D01*
X177820170Y-134591928D02*
X177820170Y-133091928D01*
X177820170Y-134520500D02*
X177677312Y-134591928D01*
X177677312Y-134591928D02*
X177391598Y-134591928D01*
X177391598Y-134591928D02*
X177248741Y-134520500D01*
X177248741Y-134520500D02*
X177177312Y-134449071D01*
X177177312Y-134449071D02*
X177105884Y-134306214D01*
X177105884Y-134306214D02*
X177105884Y-133877642D01*
X177105884Y-133877642D02*
X177177312Y-133734785D01*
X177177312Y-133734785D02*
X177248741Y-133663357D01*
X177248741Y-133663357D02*
X177391598Y-133591928D01*
X177391598Y-133591928D02*
X177677312Y-133591928D01*
X177677312Y-133591928D02*
X177820170Y-133663357D01*
X178534455Y-134449071D02*
X178605884Y-134520500D01*
X178605884Y-134520500D02*
X178534455Y-134591928D01*
X178534455Y-134591928D02*
X178463027Y-134520500D01*
X178463027Y-134520500D02*
X178534455Y-134449071D01*
X178534455Y-134449071D02*
X178534455Y-134591928D01*
X178534455Y-133663357D02*
X178605884Y-133734785D01*
X178605884Y-133734785D02*
X178534455Y-133806214D01*
X178534455Y-133806214D02*
X178463027Y-133734785D01*
X178463027Y-133734785D02*
X178534455Y-133663357D01*
X178534455Y-133663357D02*
X178534455Y-133806214D01*
X180320170Y-133234785D02*
X180391598Y-133163357D01*
X180391598Y-133163357D02*
X180534456Y-133091928D01*
X180534456Y-133091928D02*
X180891598Y-133091928D01*
X180891598Y-133091928D02*
X181034456Y-133163357D01*
X181034456Y-133163357D02*
X181105884Y-133234785D01*
X181105884Y-133234785D02*
X181177313Y-133377642D01*
X181177313Y-133377642D02*
X181177313Y-133520500D01*
X181177313Y-133520500D02*
X181105884Y-133734785D01*
X181105884Y-133734785D02*
X180248741Y-134591928D01*
X180248741Y-134591928D02*
X181177313Y-134591928D01*
X182891598Y-133020500D02*
X181605884Y-134949071D01*
X183463027Y-134591928D02*
X183748741Y-134591928D01*
X183748741Y-134591928D02*
X183891598Y-134520500D01*
X183891598Y-134520500D02*
X183963027Y-134449071D01*
X183963027Y-134449071D02*
X184105884Y-134234785D01*
X184105884Y-134234785D02*
X184177313Y-133949071D01*
X184177313Y-133949071D02*
X184177313Y-133377642D01*
X184177313Y-133377642D02*
X184105884Y-133234785D01*
X184105884Y-133234785D02*
X184034456Y-133163357D01*
X184034456Y-133163357D02*
X183891598Y-133091928D01*
X183891598Y-133091928D02*
X183605884Y-133091928D01*
X183605884Y-133091928D02*
X183463027Y-133163357D01*
X183463027Y-133163357D02*
X183391598Y-133234785D01*
X183391598Y-133234785D02*
X183320170Y-133377642D01*
X183320170Y-133377642D02*
X183320170Y-133734785D01*
X183320170Y-133734785D02*
X183391598Y-133877642D01*
X183391598Y-133877642D02*
X183463027Y-133949071D01*
X183463027Y-133949071D02*
X183605884Y-134020500D01*
X183605884Y-134020500D02*
X183891598Y-134020500D01*
X183891598Y-134020500D02*
X184034456Y-133949071D01*
X184034456Y-133949071D02*
X184105884Y-133877642D01*
X184105884Y-133877642D02*
X184177313Y-133734785D01*
D10*
D11*
X90007200Y-125505800D02*
X198007200Y-125505800D01*
D10*
D13*
X91698928Y-126210238D02*
X92841785Y-126210238D01*
X92020357Y-128210238D02*
X92270357Y-126210238D01*
X93258452Y-128210238D02*
X93425119Y-126876904D01*
X93508452Y-126210238D02*
X93401309Y-126305476D01*
X93401309Y-126305476D02*
X93484643Y-126400714D01*
X93484643Y-126400714D02*
X93591786Y-126305476D01*
X93591786Y-126305476D02*
X93508452Y-126210238D01*
X93508452Y-126210238D02*
X93484643Y-126400714D01*
X94091786Y-126876904D02*
X94853690Y-126876904D01*
X94460833Y-126210238D02*
X94246548Y-127924523D01*
X94246548Y-127924523D02*
X94317976Y-128115000D01*
X94317976Y-128115000D02*
X94496548Y-128210238D01*
X94496548Y-128210238D02*
X94687024Y-128210238D01*
X95639405Y-128210238D02*
X95460833Y-128115000D01*
X95460833Y-128115000D02*
X95389405Y-127924523D01*
X95389405Y-127924523D02*
X95603690Y-126210238D01*
X97175119Y-128115000D02*
X96972738Y-128210238D01*
X96972738Y-128210238D02*
X96591785Y-128210238D01*
X96591785Y-128210238D02*
X96413214Y-128115000D01*
X96413214Y-128115000D02*
X96341785Y-127924523D01*
X96341785Y-127924523D02*
X96437024Y-127162619D01*
X96437024Y-127162619D02*
X96556071Y-126972142D01*
X96556071Y-126972142D02*
X96758452Y-126876904D01*
X96758452Y-126876904D02*
X97139404Y-126876904D01*
X97139404Y-126876904D02*
X97317976Y-126972142D01*
X97317976Y-126972142D02*
X97389404Y-127162619D01*
X97389404Y-127162619D02*
X97365595Y-127353095D01*
X97365595Y-127353095D02*
X96389404Y-127543571D01*
X98139405Y-128019761D02*
X98222738Y-128115000D01*
X98222738Y-128115000D02*
X98115595Y-128210238D01*
X98115595Y-128210238D02*
X98032262Y-128115000D01*
X98032262Y-128115000D02*
X98139405Y-128019761D01*
X98139405Y-128019761D02*
X98115595Y-128210238D01*
X98270357Y-126972142D02*
X98353690Y-127067380D01*
X98353690Y-127067380D02*
X98246548Y-127162619D01*
X98246548Y-127162619D02*
X98163214Y-127067380D01*
X98163214Y-127067380D02*
X98270357Y-126972142D01*
X98270357Y-126972142D02*
X98246548Y-127162619D01*
X100591786Y-128210238D02*
X100841786Y-126210238D01*
X100841786Y-126210238D02*
X101603691Y-126210238D01*
X101603691Y-126210238D02*
X101782262Y-126305476D01*
X101782262Y-126305476D02*
X101865596Y-126400714D01*
X101865596Y-126400714D02*
X101937024Y-126591190D01*
X101937024Y-126591190D02*
X101901310Y-126876904D01*
X101901310Y-126876904D02*
X101782262Y-127067380D01*
X101782262Y-127067380D02*
X101675120Y-127162619D01*
X101675120Y-127162619D02*
X101472739Y-127257857D01*
X101472739Y-127257857D02*
X100710834Y-127257857D01*
X103758453Y-128019761D02*
X103651310Y-128115000D01*
X103651310Y-128115000D02*
X103353691Y-128210238D01*
X103353691Y-128210238D02*
X103163215Y-128210238D01*
X103163215Y-128210238D02*
X102889405Y-128115000D01*
X102889405Y-128115000D02*
X102722739Y-127924523D01*
X102722739Y-127924523D02*
X102651310Y-127734047D01*
X102651310Y-127734047D02*
X102603691Y-127353095D01*
X102603691Y-127353095D02*
X102639405Y-127067380D01*
X102639405Y-127067380D02*
X102782262Y-126686428D01*
X102782262Y-126686428D02*
X102901310Y-126495952D01*
X102901310Y-126495952D02*
X103115596Y-126305476D01*
X103115596Y-126305476D02*
X103413215Y-126210238D01*
X103413215Y-126210238D02*
X103603691Y-126210238D01*
X103603691Y-126210238D02*
X103877501Y-126305476D01*
X103877501Y-126305476D02*
X103960834Y-126400714D01*
X105389405Y-127162619D02*
X105663215Y-127257857D01*
X105663215Y-127257857D02*
X105746548Y-127353095D01*
X105746548Y-127353095D02*
X105817977Y-127543571D01*
X105817977Y-127543571D02*
X105782262Y-127829285D01*
X105782262Y-127829285D02*
X105663215Y-128019761D01*
X105663215Y-128019761D02*
X105556072Y-128115000D01*
X105556072Y-128115000D02*
X105353691Y-128210238D01*
X105353691Y-128210238D02*
X104591786Y-128210238D01*
X104591786Y-128210238D02*
X104841786Y-126210238D01*
X104841786Y-126210238D02*
X105508453Y-126210238D01*
X105508453Y-126210238D02*
X105687024Y-126305476D01*
X105687024Y-126305476D02*
X105770358Y-126400714D01*
X105770358Y-126400714D02*
X105841786Y-126591190D01*
X105841786Y-126591190D02*
X105817977Y-126781666D01*
X105817977Y-126781666D02*
X105698929Y-126972142D01*
X105698929Y-126972142D02*
X105591786Y-127067380D01*
X105591786Y-127067380D02*
X105389405Y-127162619D01*
X105389405Y-127162619D02*
X104722739Y-127162619D01*
X108972739Y-128210238D02*
X109222739Y-126210238D01*
X108984644Y-128115000D02*
X108782263Y-128210238D01*
X108782263Y-128210238D02*
X108401311Y-128210238D01*
X108401311Y-128210238D02*
X108222739Y-128115000D01*
X108222739Y-128115000D02*
X108139406Y-128019761D01*
X108139406Y-128019761D02*
X108067977Y-127829285D01*
X108067977Y-127829285D02*
X108139406Y-127257857D01*
X108139406Y-127257857D02*
X108258453Y-127067380D01*
X108258453Y-127067380D02*
X108365596Y-126972142D01*
X108365596Y-126972142D02*
X108567977Y-126876904D01*
X108567977Y-126876904D02*
X108948930Y-126876904D01*
X108948930Y-126876904D02*
X109127501Y-126972142D01*
X110698930Y-128115000D02*
X110496549Y-128210238D01*
X110496549Y-128210238D02*
X110115596Y-128210238D01*
X110115596Y-128210238D02*
X109937025Y-128115000D01*
X109937025Y-128115000D02*
X109865596Y-127924523D01*
X109865596Y-127924523D02*
X109960835Y-127162619D01*
X109960835Y-127162619D02*
X110079882Y-126972142D01*
X110079882Y-126972142D02*
X110282263Y-126876904D01*
X110282263Y-126876904D02*
X110663215Y-126876904D01*
X110663215Y-126876904D02*
X110841787Y-126972142D01*
X110841787Y-126972142D02*
X110913215Y-127162619D01*
X110913215Y-127162619D02*
X110889406Y-127353095D01*
X110889406Y-127353095D02*
X109913215Y-127543571D01*
X111925121Y-128210238D02*
X111746549Y-128115000D01*
X111746549Y-128115000D02*
X111675121Y-127924523D01*
X111675121Y-127924523D02*
X111889406Y-126210238D01*
X114210835Y-128210238D02*
X114377502Y-126876904D01*
X114329883Y-127257857D02*
X114448930Y-127067380D01*
X114448930Y-127067380D02*
X114556073Y-126972142D01*
X114556073Y-126972142D02*
X114758454Y-126876904D01*
X114758454Y-126876904D02*
X114948930Y-126876904D01*
X115734645Y-128210238D02*
X115556073Y-128115000D01*
X115556073Y-128115000D02*
X115472740Y-128019761D01*
X115472740Y-128019761D02*
X115401311Y-127829285D01*
X115401311Y-127829285D02*
X115472740Y-127257857D01*
X115472740Y-127257857D02*
X115591787Y-127067380D01*
X115591787Y-127067380D02*
X115698930Y-126972142D01*
X115698930Y-126972142D02*
X115901311Y-126876904D01*
X115901311Y-126876904D02*
X116187025Y-126876904D01*
X116187025Y-126876904D02*
X116365597Y-126972142D01*
X116365597Y-126972142D02*
X116448930Y-127067380D01*
X116448930Y-127067380D02*
X116520359Y-127257857D01*
X116520359Y-127257857D02*
X116448930Y-127829285D01*
X116448930Y-127829285D02*
X116329883Y-128019761D01*
X116329883Y-128019761D02*
X116222740Y-128115000D01*
X116222740Y-128115000D02*
X116020359Y-128210238D01*
X116020359Y-128210238D02*
X115734645Y-128210238D01*
X117258454Y-128210238D02*
X117508454Y-126210238D01*
X117413216Y-126972142D02*
X117615597Y-126876904D01*
X117615597Y-126876904D02*
X117996549Y-126876904D01*
X117996549Y-126876904D02*
X118175121Y-126972142D01*
X118175121Y-126972142D02*
X118258454Y-127067380D01*
X118258454Y-127067380D02*
X118329883Y-127257857D01*
X118329883Y-127257857D02*
X118258454Y-127829285D01*
X118258454Y-127829285D02*
X118139407Y-128019761D01*
X118139407Y-128019761D02*
X118032264Y-128115000D01*
X118032264Y-128115000D02*
X117829883Y-128210238D01*
X117829883Y-128210238D02*
X117448930Y-128210238D01*
X117448930Y-128210238D02*
X117270359Y-128115000D01*
X119353693Y-128210238D02*
X119175121Y-128115000D01*
X119175121Y-128115000D02*
X119091788Y-128019761D01*
X119091788Y-128019761D02*
X119020359Y-127829285D01*
X119020359Y-127829285D02*
X119091788Y-127257857D01*
X119091788Y-127257857D02*
X119210835Y-127067380D01*
X119210835Y-127067380D02*
X119317978Y-126972142D01*
X119317978Y-126972142D02*
X119520359Y-126876904D01*
X119520359Y-126876904D02*
X119806073Y-126876904D01*
X119806073Y-126876904D02*
X119984645Y-126972142D01*
X119984645Y-126972142D02*
X120067978Y-127067380D01*
X120067978Y-127067380D02*
X120139407Y-127257857D01*
X120139407Y-127257857D02*
X120067978Y-127829285D01*
X120067978Y-127829285D02*
X119948931Y-128019761D01*
X119948931Y-128019761D02*
X119841788Y-128115000D01*
X119841788Y-128115000D02*
X119639407Y-128210238D01*
X119639407Y-128210238D02*
X119353693Y-128210238D01*
X120758455Y-126876904D02*
X121520359Y-126876904D01*
X121127502Y-126210238D02*
X120913217Y-127924523D01*
X120913217Y-127924523D02*
X120984645Y-128115000D01*
X120984645Y-128115000D02*
X121163217Y-128210238D01*
X121163217Y-128210238D02*
X121353693Y-128210238D01*
X123710836Y-126876904D02*
X123460836Y-128876904D01*
X123698931Y-126972142D02*
X123901312Y-126876904D01*
X123901312Y-126876904D02*
X124282264Y-126876904D01*
X124282264Y-126876904D02*
X124460836Y-126972142D01*
X124460836Y-126972142D02*
X124544169Y-127067380D01*
X124544169Y-127067380D02*
X124615598Y-127257857D01*
X124615598Y-127257857D02*
X124544169Y-127829285D01*
X124544169Y-127829285D02*
X124425122Y-128019761D01*
X124425122Y-128019761D02*
X124317979Y-128115000D01*
X124317979Y-128115000D02*
X124115598Y-128210238D01*
X124115598Y-128210238D02*
X123734645Y-128210238D01*
X123734645Y-128210238D02*
X123556074Y-128115000D01*
X125639408Y-128210238D02*
X125460836Y-128115000D01*
X125460836Y-128115000D02*
X125389408Y-127924523D01*
X125389408Y-127924523D02*
X125603693Y-126210238D01*
X127258455Y-128210238D02*
X127389407Y-127162619D01*
X127389407Y-127162619D02*
X127317979Y-126972142D01*
X127317979Y-126972142D02*
X127139407Y-126876904D01*
X127139407Y-126876904D02*
X126758455Y-126876904D01*
X126758455Y-126876904D02*
X126556074Y-126972142D01*
X127270360Y-128115000D02*
X127067979Y-128210238D01*
X127067979Y-128210238D02*
X126591788Y-128210238D01*
X126591788Y-128210238D02*
X126413217Y-128115000D01*
X126413217Y-128115000D02*
X126341788Y-127924523D01*
X126341788Y-127924523D02*
X126365598Y-127734047D01*
X126365598Y-127734047D02*
X126484646Y-127543571D01*
X126484646Y-127543571D02*
X126687027Y-127448333D01*
X126687027Y-127448333D02*
X127163217Y-127448333D01*
X127163217Y-127448333D02*
X127365598Y-127353095D01*
X128377503Y-126876904D02*
X128210836Y-128210238D01*
X128353693Y-127067380D02*
X128460836Y-126972142D01*
X128460836Y-126972142D02*
X128663217Y-126876904D01*
X128663217Y-126876904D02*
X128948931Y-126876904D01*
X128948931Y-126876904D02*
X129127503Y-126972142D01*
X129127503Y-126972142D02*
X129198931Y-127162619D01*
X129198931Y-127162619D02*
X129067979Y-128210238D01*
X130877503Y-128210238D02*
X131008455Y-127162619D01*
X131008455Y-127162619D02*
X130937027Y-126972142D01*
X130937027Y-126972142D02*
X130758455Y-126876904D01*
X130758455Y-126876904D02*
X130377503Y-126876904D01*
X130377503Y-126876904D02*
X130175122Y-126972142D01*
X130889408Y-128115000D02*
X130687027Y-128210238D01*
X130687027Y-128210238D02*
X130210836Y-128210238D01*
X130210836Y-128210238D02*
X130032265Y-128115000D01*
X130032265Y-128115000D02*
X129960836Y-127924523D01*
X129960836Y-127924523D02*
X129984646Y-127734047D01*
X129984646Y-127734047D02*
X130103694Y-127543571D01*
X130103694Y-127543571D02*
X130306075Y-127448333D01*
X130306075Y-127448333D02*
X130782265Y-127448333D01*
X130782265Y-127448333D02*
X130984646Y-127353095D01*
X131829884Y-128210238D02*
X131996551Y-126876904D01*
X131948932Y-127257857D02*
X132067979Y-127067380D01*
X132067979Y-127067380D02*
X132175122Y-126972142D01*
X132175122Y-126972142D02*
X132377503Y-126876904D01*
X132377503Y-126876904D02*
X132567979Y-126876904D01*
X135067980Y-128972142D02*
X134984646Y-128876904D01*
X134984646Y-128876904D02*
X134829884Y-128591190D01*
X134829884Y-128591190D02*
X134758456Y-128400714D01*
X134758456Y-128400714D02*
X134698932Y-128115000D01*
X134698932Y-128115000D02*
X134663218Y-127638809D01*
X134663218Y-127638809D02*
X134710837Y-127257857D01*
X134710837Y-127257857D02*
X134865599Y-126781666D01*
X134865599Y-126781666D02*
X134996551Y-126495952D01*
X134996551Y-126495952D02*
X135115599Y-126305476D01*
X135115599Y-126305476D02*
X135341789Y-126019761D01*
X135341789Y-126019761D02*
X135448932Y-125924523D01*
X135925122Y-128210238D02*
X136175122Y-126210238D01*
X136175122Y-126210238D02*
X136937027Y-126210238D01*
X136937027Y-126210238D02*
X137115598Y-126305476D01*
X137115598Y-126305476D02*
X137198932Y-126400714D01*
X137198932Y-126400714D02*
X137270360Y-126591190D01*
X137270360Y-126591190D02*
X137234646Y-126876904D01*
X137234646Y-126876904D02*
X137115598Y-127067380D01*
X137115598Y-127067380D02*
X137008456Y-127162619D01*
X137008456Y-127162619D02*
X136806075Y-127257857D01*
X136806075Y-127257857D02*
X136044170Y-127257857D01*
X137925122Y-128210238D02*
X138175122Y-126210238D01*
X138175122Y-126210238D02*
X138937027Y-126210238D01*
X138937027Y-126210238D02*
X139115598Y-126305476D01*
X139115598Y-126305476D02*
X139198932Y-126400714D01*
X139198932Y-126400714D02*
X139270360Y-126591190D01*
X139270360Y-126591190D02*
X139234646Y-126876904D01*
X139234646Y-126876904D02*
X139115598Y-127067380D01*
X139115598Y-127067380D02*
X139008456Y-127162619D01*
X139008456Y-127162619D02*
X138806075Y-127257857D01*
X138806075Y-127257857D02*
X138044170Y-127257857D01*
X139925122Y-128210238D02*
X140175122Y-126210238D01*
X140175122Y-126210238D02*
X140937027Y-126210238D01*
X140937027Y-126210238D02*
X141115598Y-126305476D01*
X141115598Y-126305476D02*
X141198932Y-126400714D01*
X141198932Y-126400714D02*
X141270360Y-126591190D01*
X141270360Y-126591190D02*
X141234646Y-126876904D01*
X141234646Y-126876904D02*
X141115598Y-127067380D01*
X141115598Y-127067380D02*
X141008456Y-127162619D01*
X141008456Y-127162619D02*
X140806075Y-127257857D01*
X140806075Y-127257857D02*
X140044170Y-127257857D01*
X141639408Y-128972142D02*
X141746551Y-128876904D01*
X141746551Y-128876904D02*
X141972741Y-128591190D01*
X141972741Y-128591190D02*
X142091789Y-128400714D01*
X142091789Y-128400714D02*
X142222741Y-128115000D01*
X142222741Y-128115000D02*
X142377503Y-127638809D01*
X142377503Y-127638809D02*
X142425122Y-127257857D01*
X142425122Y-127257857D02*
X142389408Y-126781666D01*
X142389408Y-126781666D02*
X142329884Y-126495952D01*
X142329884Y-126495952D02*
X142258456Y-126305476D01*
X142258456Y-126305476D02*
X142103694Y-126019761D01*
X142103694Y-126019761D02*
X142020360Y-125924523D01*
D10*
D11*
X91963026Y-123606214D02*
X91463026Y-123606214D01*
X91463026Y-124391928D02*
X91463026Y-122891928D01*
X91463026Y-122891928D02*
X92177312Y-122891928D01*
X92748740Y-124391928D02*
X92748740Y-123391928D01*
X92748740Y-122891928D02*
X92677312Y-122963357D01*
X92677312Y-122963357D02*
X92748740Y-123034785D01*
X92748740Y-123034785D02*
X92820169Y-122963357D01*
X92820169Y-122963357D02*
X92748740Y-122891928D01*
X92748740Y-122891928D02*
X92748740Y-123034785D01*
X93677312Y-124391928D02*
X93534455Y-124320500D01*
X93534455Y-124320500D02*
X93463026Y-124177642D01*
X93463026Y-124177642D02*
X93463026Y-122891928D01*
X94820169Y-124320500D02*
X94677312Y-124391928D01*
X94677312Y-124391928D02*
X94391598Y-124391928D01*
X94391598Y-124391928D02*
X94248740Y-124320500D01*
X94248740Y-124320500D02*
X94177312Y-124177642D01*
X94177312Y-124177642D02*
X94177312Y-123606214D01*
X94177312Y-123606214D02*
X94248740Y-123463357D01*
X94248740Y-123463357D02*
X94391598Y-123391928D01*
X94391598Y-123391928D02*
X94677312Y-123391928D01*
X94677312Y-123391928D02*
X94820169Y-123463357D01*
X94820169Y-123463357D02*
X94891598Y-123606214D01*
X94891598Y-123606214D02*
X94891598Y-123749071D01*
X94891598Y-123749071D02*
X94177312Y-123891928D01*
X95534454Y-124249071D02*
X95605883Y-124320500D01*
X95605883Y-124320500D02*
X95534454Y-124391928D01*
X95534454Y-124391928D02*
X95463026Y-124320500D01*
X95463026Y-124320500D02*
X95534454Y-124249071D01*
X95534454Y-124249071D02*
X95534454Y-124391928D01*
X95534454Y-123463357D02*
X95605883Y-123534785D01*
X95605883Y-123534785D02*
X95534454Y-123606214D01*
X95534454Y-123606214D02*
X95463026Y-123534785D01*
X95463026Y-123534785D02*
X95534454Y-123463357D01*
X95534454Y-123463357D02*
X95534454Y-123606214D01*
X97963026Y-124320500D02*
X97820169Y-124391928D01*
X97820169Y-124391928D02*
X97534455Y-124391928D01*
X97534455Y-124391928D02*
X97391597Y-124320500D01*
X97391597Y-124320500D02*
X97320169Y-124177642D01*
X97320169Y-124177642D02*
X97320169Y-123606214D01*
X97320169Y-123606214D02*
X97391597Y-123463357D01*
X97391597Y-123463357D02*
X97534455Y-123391928D01*
X97534455Y-123391928D02*
X97820169Y-123391928D01*
X97820169Y-123391928D02*
X97963026Y-123463357D01*
X97963026Y-123463357D02*
X98034455Y-123606214D01*
X98034455Y-123606214D02*
X98034455Y-123749071D01*
X98034455Y-123749071D02*
X97320169Y-123891928D01*
X98891597Y-124391928D02*
X98748740Y-124320500D01*
X98748740Y-124320500D02*
X98677311Y-124177642D01*
X98677311Y-124177642D02*
X98677311Y-122891928D01*
X100034454Y-124320500D02*
X99891597Y-124391928D01*
X99891597Y-124391928D02*
X99605883Y-124391928D01*
X99605883Y-124391928D02*
X99463025Y-124320500D01*
X99463025Y-124320500D02*
X99391597Y-124177642D01*
X99391597Y-124177642D02*
X99391597Y-123606214D01*
X99391597Y-123606214D02*
X99463025Y-123463357D01*
X99463025Y-123463357D02*
X99605883Y-123391928D01*
X99605883Y-123391928D02*
X99891597Y-123391928D01*
X99891597Y-123391928D02*
X100034454Y-123463357D01*
X100034454Y-123463357D02*
X100105883Y-123606214D01*
X100105883Y-123606214D02*
X100105883Y-123749071D01*
X100105883Y-123749071D02*
X99391597Y-123891928D01*
X101391597Y-124320500D02*
X101248739Y-124391928D01*
X101248739Y-124391928D02*
X100963025Y-124391928D01*
X100963025Y-124391928D02*
X100820168Y-124320500D01*
X100820168Y-124320500D02*
X100748739Y-124249071D01*
X100748739Y-124249071D02*
X100677311Y-124106214D01*
X100677311Y-124106214D02*
X100677311Y-123677642D01*
X100677311Y-123677642D02*
X100748739Y-123534785D01*
X100748739Y-123534785D02*
X100820168Y-123463357D01*
X100820168Y-123463357D02*
X100963025Y-123391928D01*
X100963025Y-123391928D02*
X101248739Y-123391928D01*
X101248739Y-123391928D02*
X101391597Y-123463357D01*
X101820168Y-123391928D02*
X102391596Y-123391928D01*
X102034453Y-122891928D02*
X102034453Y-124177642D01*
X102034453Y-124177642D02*
X102105882Y-124320500D01*
X102105882Y-124320500D02*
X102248739Y-124391928D01*
X102248739Y-124391928D02*
X102391596Y-124391928D01*
X102891596Y-124391928D02*
X102891596Y-123391928D01*
X102891596Y-123677642D02*
X102963025Y-123534785D01*
X102963025Y-123534785D02*
X103034454Y-123463357D01*
X103034454Y-123463357D02*
X103177311Y-123391928D01*
X103177311Y-123391928D02*
X103320168Y-123391928D01*
X104034453Y-124391928D02*
X103891596Y-124320500D01*
X103891596Y-124320500D02*
X103820167Y-124249071D01*
X103820167Y-124249071D02*
X103748739Y-124106214D01*
X103748739Y-124106214D02*
X103748739Y-123677642D01*
X103748739Y-123677642D02*
X103820167Y-123534785D01*
X103820167Y-123534785D02*
X103891596Y-123463357D01*
X103891596Y-123463357D02*
X104034453Y-123391928D01*
X104034453Y-123391928D02*
X104248739Y-123391928D01*
X104248739Y-123391928D02*
X104391596Y-123463357D01*
X104391596Y-123463357D02*
X104463025Y-123534785D01*
X104463025Y-123534785D02*
X104534453Y-123677642D01*
X104534453Y-123677642D02*
X104534453Y-124106214D01*
X104534453Y-124106214D02*
X104463025Y-124249071D01*
X104463025Y-124249071D02*
X104391596Y-124320500D01*
X104391596Y-124320500D02*
X104248739Y-124391928D01*
X104248739Y-124391928D02*
X104034453Y-124391928D01*
X105177310Y-123391928D02*
X105177310Y-124391928D01*
X105177310Y-123534785D02*
X105248739Y-123463357D01*
X105248739Y-123463357D02*
X105391596Y-123391928D01*
X105391596Y-123391928D02*
X105605882Y-123391928D01*
X105605882Y-123391928D02*
X105748739Y-123463357D01*
X105748739Y-123463357D02*
X105820168Y-123606214D01*
X105820168Y-123606214D02*
X105820168Y-124391928D01*
X106534453Y-124391928D02*
X106534453Y-123391928D01*
X106534453Y-122891928D02*
X106463025Y-122963357D01*
X106463025Y-122963357D02*
X106534453Y-123034785D01*
X106534453Y-123034785D02*
X106605882Y-122963357D01*
X106605882Y-122963357D02*
X106534453Y-122891928D01*
X106534453Y-122891928D02*
X106534453Y-123034785D01*
X107891597Y-124320500D02*
X107748739Y-124391928D01*
X107748739Y-124391928D02*
X107463025Y-124391928D01*
X107463025Y-124391928D02*
X107320168Y-124320500D01*
X107320168Y-124320500D02*
X107248739Y-124249071D01*
X107248739Y-124249071D02*
X107177311Y-124106214D01*
X107177311Y-124106214D02*
X107177311Y-123677642D01*
X107177311Y-123677642D02*
X107248739Y-123534785D01*
X107248739Y-123534785D02*
X107320168Y-123463357D01*
X107320168Y-123463357D02*
X107463025Y-123391928D01*
X107463025Y-123391928D02*
X107748739Y-123391928D01*
X107748739Y-123391928D02*
X107891597Y-123463357D01*
X108534453Y-124249071D02*
X108605882Y-124320500D01*
X108605882Y-124320500D02*
X108534453Y-124391928D01*
X108534453Y-124391928D02*
X108463025Y-124320500D01*
X108463025Y-124320500D02*
X108534453Y-124249071D01*
X108534453Y-124249071D02*
X108534453Y-124391928D01*
X109248739Y-124391928D02*
X109248739Y-122891928D01*
X109391597Y-123820500D02*
X109820168Y-124391928D01*
X109820168Y-123391928D02*
X109248739Y-123963357D01*
X110463025Y-124391928D02*
X110463025Y-123391928D01*
X110463025Y-122891928D02*
X110391597Y-122963357D01*
X110391597Y-122963357D02*
X110463025Y-123034785D01*
X110463025Y-123034785D02*
X110534454Y-122963357D01*
X110534454Y-122963357D02*
X110463025Y-122891928D01*
X110463025Y-122891928D02*
X110463025Y-123034785D01*
X111820169Y-124320500D02*
X111677311Y-124391928D01*
X111677311Y-124391928D02*
X111391597Y-124391928D01*
X111391597Y-124391928D02*
X111248740Y-124320500D01*
X111248740Y-124320500D02*
X111177311Y-124249071D01*
X111177311Y-124249071D02*
X111105883Y-124106214D01*
X111105883Y-124106214D02*
X111105883Y-123677642D01*
X111105883Y-123677642D02*
X111177311Y-123534785D01*
X111177311Y-123534785D02*
X111248740Y-123463357D01*
X111248740Y-123463357D02*
X111391597Y-123391928D01*
X111391597Y-123391928D02*
X111677311Y-123391928D01*
X111677311Y-123391928D02*
X111820169Y-123463357D01*
X113105883Y-124391928D02*
X113105883Y-123606214D01*
X113105883Y-123606214D02*
X113034454Y-123463357D01*
X113034454Y-123463357D02*
X112891597Y-123391928D01*
X112891597Y-123391928D02*
X112605883Y-123391928D01*
X112605883Y-123391928D02*
X112463025Y-123463357D01*
X113105883Y-124320500D02*
X112963025Y-124391928D01*
X112963025Y-124391928D02*
X112605883Y-124391928D01*
X112605883Y-124391928D02*
X112463025Y-124320500D01*
X112463025Y-124320500D02*
X112391597Y-124177642D01*
X112391597Y-124177642D02*
X112391597Y-124034785D01*
X112391597Y-124034785D02*
X112463025Y-123891928D01*
X112463025Y-123891928D02*
X112605883Y-123820500D01*
X112605883Y-123820500D02*
X112963025Y-123820500D01*
X112963025Y-123820500D02*
X113105883Y-123749071D01*
X114463026Y-124391928D02*
X114463026Y-122891928D01*
X114463026Y-124320500D02*
X114320168Y-124391928D01*
X114320168Y-124391928D02*
X114034454Y-124391928D01*
X114034454Y-124391928D02*
X113891597Y-124320500D01*
X113891597Y-124320500D02*
X113820168Y-124249071D01*
X113820168Y-124249071D02*
X113748740Y-124106214D01*
X113748740Y-124106214D02*
X113748740Y-123677642D01*
X113748740Y-123677642D02*
X113820168Y-123534785D01*
X113820168Y-123534785D02*
X113891597Y-123463357D01*
X113891597Y-123463357D02*
X114034454Y-123391928D01*
X114034454Y-123391928D02*
X114320168Y-123391928D01*
X114320168Y-123391928D02*
X114463026Y-123463357D01*
X114820169Y-124534785D02*
X115963026Y-124534785D01*
X116320168Y-123391928D02*
X116320168Y-124891928D01*
X116320168Y-123463357D02*
X116463026Y-123391928D01*
X116463026Y-123391928D02*
X116748740Y-123391928D01*
X116748740Y-123391928D02*
X116891597Y-123463357D01*
X116891597Y-123463357D02*
X116963026Y-123534785D01*
X116963026Y-123534785D02*
X117034454Y-123677642D01*
X117034454Y-123677642D02*
X117034454Y-124106214D01*
X117034454Y-124106214D02*
X116963026Y-124249071D01*
X116963026Y-124249071D02*
X116891597Y-124320500D01*
X116891597Y-124320500D02*
X116748740Y-124391928D01*
X116748740Y-124391928D02*
X116463026Y-124391928D01*
X116463026Y-124391928D02*
X116320168Y-124320500D01*
X118320169Y-124320500D02*
X118177311Y-124391928D01*
X118177311Y-124391928D02*
X117891597Y-124391928D01*
X117891597Y-124391928D02*
X117748740Y-124320500D01*
X117748740Y-124320500D02*
X117677311Y-124249071D01*
X117677311Y-124249071D02*
X117605883Y-124106214D01*
X117605883Y-124106214D02*
X117605883Y-123677642D01*
X117605883Y-123677642D02*
X117677311Y-123534785D01*
X117677311Y-123534785D02*
X117748740Y-123463357D01*
X117748740Y-123463357D02*
X117891597Y-123391928D01*
X117891597Y-123391928D02*
X118177311Y-123391928D01*
X118177311Y-123391928D02*
X118320169Y-123463357D01*
X118963025Y-124391928D02*
X118963025Y-122891928D01*
X118963025Y-123463357D02*
X119105883Y-123391928D01*
X119105883Y-123391928D02*
X119391597Y-123391928D01*
X119391597Y-123391928D02*
X119534454Y-123463357D01*
X119534454Y-123463357D02*
X119605883Y-123534785D01*
X119605883Y-123534785D02*
X119677311Y-123677642D01*
X119677311Y-123677642D02*
X119677311Y-124106214D01*
X119677311Y-124106214D02*
X119605883Y-124249071D01*
X119605883Y-124249071D02*
X119534454Y-124320500D01*
X119534454Y-124320500D02*
X119391597Y-124391928D01*
X119391597Y-124391928D02*
X119105883Y-124391928D01*
X119105883Y-124391928D02*
X118963025Y-124320500D01*
D10*
D11*
X90007200Y-119505800D02*
X198007200Y-119505800D01*
D10*
D11*
X91391598Y-121620500D02*
X91605884Y-121691928D01*
X91605884Y-121691928D02*
X91963026Y-121691928D01*
X91963026Y-121691928D02*
X92105884Y-121620500D01*
X92105884Y-121620500D02*
X92177312Y-121549071D01*
X92177312Y-121549071D02*
X92248741Y-121406214D01*
X92248741Y-121406214D02*
X92248741Y-121263357D01*
X92248741Y-121263357D02*
X92177312Y-121120500D01*
X92177312Y-121120500D02*
X92105884Y-121049071D01*
X92105884Y-121049071D02*
X91963026Y-120977642D01*
X91963026Y-120977642D02*
X91677312Y-120906214D01*
X91677312Y-120906214D02*
X91534455Y-120834785D01*
X91534455Y-120834785D02*
X91463026Y-120763357D01*
X91463026Y-120763357D02*
X91391598Y-120620500D01*
X91391598Y-120620500D02*
X91391598Y-120477642D01*
X91391598Y-120477642D02*
X91463026Y-120334785D01*
X91463026Y-120334785D02*
X91534455Y-120263357D01*
X91534455Y-120263357D02*
X91677312Y-120191928D01*
X91677312Y-120191928D02*
X92034455Y-120191928D01*
X92034455Y-120191928D02*
X92248741Y-120263357D01*
X92891597Y-121691928D02*
X92891597Y-120191928D01*
X93534455Y-121691928D02*
X93534455Y-120906214D01*
X93534455Y-120906214D02*
X93463026Y-120763357D01*
X93463026Y-120763357D02*
X93320169Y-120691928D01*
X93320169Y-120691928D02*
X93105883Y-120691928D01*
X93105883Y-120691928D02*
X92963026Y-120763357D01*
X92963026Y-120763357D02*
X92891597Y-120834785D01*
X94820169Y-121620500D02*
X94677312Y-121691928D01*
X94677312Y-121691928D02*
X94391598Y-121691928D01*
X94391598Y-121691928D02*
X94248740Y-121620500D01*
X94248740Y-121620500D02*
X94177312Y-121477642D01*
X94177312Y-121477642D02*
X94177312Y-120906214D01*
X94177312Y-120906214D02*
X94248740Y-120763357D01*
X94248740Y-120763357D02*
X94391598Y-120691928D01*
X94391598Y-120691928D02*
X94677312Y-120691928D01*
X94677312Y-120691928D02*
X94820169Y-120763357D01*
X94820169Y-120763357D02*
X94891598Y-120906214D01*
X94891598Y-120906214D02*
X94891598Y-121049071D01*
X94891598Y-121049071D02*
X94177312Y-121191928D01*
X96105883Y-121620500D02*
X95963026Y-121691928D01*
X95963026Y-121691928D02*
X95677312Y-121691928D01*
X95677312Y-121691928D02*
X95534454Y-121620500D01*
X95534454Y-121620500D02*
X95463026Y-121477642D01*
X95463026Y-121477642D02*
X95463026Y-120906214D01*
X95463026Y-120906214D02*
X95534454Y-120763357D01*
X95534454Y-120763357D02*
X95677312Y-120691928D01*
X95677312Y-120691928D02*
X95963026Y-120691928D01*
X95963026Y-120691928D02*
X96105883Y-120763357D01*
X96105883Y-120763357D02*
X96177312Y-120906214D01*
X96177312Y-120906214D02*
X96177312Y-121049071D01*
X96177312Y-121049071D02*
X95463026Y-121191928D01*
X96605883Y-120691928D02*
X97177311Y-120691928D01*
X96820168Y-120191928D02*
X96820168Y-121477642D01*
X96820168Y-121477642D02*
X96891597Y-121620500D01*
X96891597Y-121620500D02*
X97034454Y-121691928D01*
X97034454Y-121691928D02*
X97177311Y-121691928D01*
X97677311Y-121549071D02*
X97748740Y-121620500D01*
X97748740Y-121620500D02*
X97677311Y-121691928D01*
X97677311Y-121691928D02*
X97605883Y-121620500D01*
X97605883Y-121620500D02*
X97677311Y-121549071D01*
X97677311Y-121549071D02*
X97677311Y-121691928D01*
X97677311Y-120763357D02*
X97748740Y-120834785D01*
X97748740Y-120834785D02*
X97677311Y-120906214D01*
X97677311Y-120906214D02*
X97605883Y-120834785D01*
X97605883Y-120834785D02*
X97677311Y-120763357D01*
X97677311Y-120763357D02*
X97677311Y-120906214D01*
D10*
D11*
X91391598Y-115263357D02*
X92105884Y-115263357D01*
X91248741Y-115691928D02*
X91748741Y-114191928D01*
X91748741Y-114191928D02*
X92248741Y-115691928D01*
X92748740Y-115691928D02*
X92748740Y-114191928D01*
X92748740Y-114191928D02*
X93105883Y-114191928D01*
X93105883Y-114191928D02*
X93320169Y-114263357D01*
X93320169Y-114263357D02*
X93463026Y-114406214D01*
X93463026Y-114406214D02*
X93534455Y-114549071D01*
X93534455Y-114549071D02*
X93605883Y-114834785D01*
X93605883Y-114834785D02*
X93605883Y-115049071D01*
X93605883Y-115049071D02*
X93534455Y-115334785D01*
X93534455Y-115334785D02*
X93463026Y-115477642D01*
X93463026Y-115477642D02*
X93320169Y-115620500D01*
X93320169Y-115620500D02*
X93105883Y-115691928D01*
X93105883Y-115691928D02*
X92748740Y-115691928D01*
X94177312Y-115263357D02*
X94891598Y-115263357D01*
X94034455Y-115691928D02*
X94534455Y-114191928D01*
X94534455Y-114191928D02*
X95034455Y-115691928D01*
X95534454Y-115691928D02*
X95534454Y-114191928D01*
X95534454Y-114191928D02*
X96391597Y-115691928D01*
X96391597Y-115691928D02*
X96391597Y-114191928D01*
X99105883Y-115691928D02*
X98605883Y-114977642D01*
X98248740Y-115691928D02*
X98248740Y-114191928D01*
X98248740Y-114191928D02*
X98820169Y-114191928D01*
X98820169Y-114191928D02*
X98963026Y-114263357D01*
X98963026Y-114263357D02*
X99034455Y-114334785D01*
X99034455Y-114334785D02*
X99105883Y-114477642D01*
X99105883Y-114477642D02*
X99105883Y-114691928D01*
X99105883Y-114691928D02*
X99034455Y-114834785D01*
X99034455Y-114834785D02*
X98963026Y-114906214D01*
X98963026Y-114906214D02*
X98820169Y-114977642D01*
X98820169Y-114977642D02*
X98248740Y-114977642D01*
X100034455Y-114191928D02*
X100320169Y-114191928D01*
X100320169Y-114191928D02*
X100463026Y-114263357D01*
X100463026Y-114263357D02*
X100605883Y-114406214D01*
X100605883Y-114406214D02*
X100677312Y-114691928D01*
X100677312Y-114691928D02*
X100677312Y-115191928D01*
X100677312Y-115191928D02*
X100605883Y-115477642D01*
X100605883Y-115477642D02*
X100463026Y-115620500D01*
X100463026Y-115620500D02*
X100320169Y-115691928D01*
X100320169Y-115691928D02*
X100034455Y-115691928D01*
X100034455Y-115691928D02*
X99891598Y-115620500D01*
X99891598Y-115620500D02*
X99748740Y-115477642D01*
X99748740Y-115477642D02*
X99677312Y-115191928D01*
X99677312Y-115191928D02*
X99677312Y-114691928D01*
X99677312Y-114691928D02*
X99748740Y-114406214D01*
X99748740Y-114406214D02*
X99891598Y-114263357D01*
X99891598Y-114263357D02*
X100034455Y-114191928D01*
X101320169Y-115691928D02*
X101320169Y-114191928D01*
X101320169Y-114191928D02*
X101677312Y-114191928D01*
X101677312Y-114191928D02*
X101891598Y-114263357D01*
X101891598Y-114263357D02*
X102034455Y-114406214D01*
X102034455Y-114406214D02*
X102105884Y-114549071D01*
X102105884Y-114549071D02*
X102177312Y-114834785D01*
X102177312Y-114834785D02*
X102177312Y-115049071D01*
X102177312Y-115049071D02*
X102105884Y-115334785D01*
X102105884Y-115334785D02*
X102034455Y-115477642D01*
X102034455Y-115477642D02*
X101891598Y-115620500D01*
X101891598Y-115620500D02*
X101677312Y-115691928D01*
X101677312Y-115691928D02*
X101320169Y-115691928D01*
X103677312Y-115691928D02*
X103177312Y-114977642D01*
X102820169Y-115691928D02*
X102820169Y-114191928D01*
X102820169Y-114191928D02*
X103391598Y-114191928D01*
X103391598Y-114191928D02*
X103534455Y-114263357D01*
X103534455Y-114263357D02*
X103605884Y-114334785D01*
X103605884Y-114334785D02*
X103677312Y-114477642D01*
X103677312Y-114477642D02*
X103677312Y-114691928D01*
X103677312Y-114691928D02*
X103605884Y-114834785D01*
X103605884Y-114834785D02*
X103534455Y-114906214D01*
X103534455Y-114906214D02*
X103391598Y-114977642D01*
X103391598Y-114977642D02*
X102820169Y-114977642D01*
X104320169Y-115691928D02*
X104320169Y-114191928D01*
X105820170Y-114263357D02*
X105677313Y-114191928D01*
X105677313Y-114191928D02*
X105463027Y-114191928D01*
X105463027Y-114191928D02*
X105248741Y-114263357D01*
X105248741Y-114263357D02*
X105105884Y-114406214D01*
X105105884Y-114406214D02*
X105034455Y-114549071D01*
X105034455Y-114549071D02*
X104963027Y-114834785D01*
X104963027Y-114834785D02*
X104963027Y-115049071D01*
X104963027Y-115049071D02*
X105034455Y-115334785D01*
X105034455Y-115334785D02*
X105105884Y-115477642D01*
X105105884Y-115477642D02*
X105248741Y-115620500D01*
X105248741Y-115620500D02*
X105463027Y-115691928D01*
X105463027Y-115691928D02*
X105605884Y-115691928D01*
X105605884Y-115691928D02*
X105820170Y-115620500D01*
X105820170Y-115620500D02*
X105891598Y-115549071D01*
X105891598Y-115549071D02*
X105891598Y-115049071D01*
X105891598Y-115049071D02*
X105605884Y-115049071D01*
X106820170Y-114191928D02*
X107105884Y-114191928D01*
X107105884Y-114191928D02*
X107248741Y-114263357D01*
X107248741Y-114263357D02*
X107391598Y-114406214D01*
X107391598Y-114406214D02*
X107463027Y-114691928D01*
X107463027Y-114691928D02*
X107463027Y-115191928D01*
X107463027Y-115191928D02*
X107391598Y-115477642D01*
X107391598Y-115477642D02*
X107248741Y-115620500D01*
X107248741Y-115620500D02*
X107105884Y-115691928D01*
X107105884Y-115691928D02*
X106820170Y-115691928D01*
X106820170Y-115691928D02*
X106677313Y-115620500D01*
X106677313Y-115620500D02*
X106534455Y-115477642D01*
X106534455Y-115477642D02*
X106463027Y-115191928D01*
X106463027Y-115191928D02*
X106463027Y-114691928D01*
X106463027Y-114691928D02*
X106534455Y-114406214D01*
X106534455Y-114406214D02*
X106677313Y-114263357D01*
X106677313Y-114263357D02*
X106820170Y-114191928D01*
X109248741Y-115691928D02*
X109248741Y-114191928D01*
X109248741Y-114191928D02*
X109605884Y-114191928D01*
X109605884Y-114191928D02*
X109820170Y-114263357D01*
X109820170Y-114263357D02*
X109963027Y-114406214D01*
X109963027Y-114406214D02*
X110034456Y-114549071D01*
X110034456Y-114549071D02*
X110105884Y-114834785D01*
X110105884Y-114834785D02*
X110105884Y-115049071D01*
X110105884Y-115049071D02*
X110034456Y-115334785D01*
X110034456Y-115334785D02*
X109963027Y-115477642D01*
X109963027Y-115477642D02*
X109820170Y-115620500D01*
X109820170Y-115620500D02*
X109605884Y-115691928D01*
X109605884Y-115691928D02*
X109248741Y-115691928D01*
X110748741Y-114906214D02*
X111248741Y-114906214D01*
X111463027Y-115691928D02*
X110748741Y-115691928D01*
X110748741Y-115691928D02*
X110748741Y-114191928D01*
X110748741Y-114191928D02*
X111463027Y-114191928D01*
X113963027Y-115691928D02*
X113248741Y-115691928D01*
X113248741Y-115691928D02*
X113248741Y-114191928D01*
X114391599Y-115263357D02*
X115105885Y-115263357D01*
X114248742Y-115691928D02*
X114748742Y-114191928D01*
X114748742Y-114191928D02*
X115248742Y-115691928D01*
X117748741Y-115549071D02*
X117677313Y-115620500D01*
X117677313Y-115620500D02*
X117463027Y-115691928D01*
X117463027Y-115691928D02*
X117320170Y-115691928D01*
X117320170Y-115691928D02*
X117105884Y-115620500D01*
X117105884Y-115620500D02*
X116963027Y-115477642D01*
X116963027Y-115477642D02*
X116891598Y-115334785D01*
X116891598Y-115334785D02*
X116820170Y-115049071D01*
X116820170Y-115049071D02*
X116820170Y-114834785D01*
X116820170Y-114834785D02*
X116891598Y-114549071D01*
X116891598Y-114549071D02*
X116963027Y-114406214D01*
X116963027Y-114406214D02*
X117105884Y-114263357D01*
X117105884Y-114263357D02*
X117320170Y-114191928D01*
X117320170Y-114191928D02*
X117463027Y-114191928D01*
X117463027Y-114191928D02*
X117677313Y-114263357D01*
X117677313Y-114263357D02*
X117748741Y-114334785D01*
X119248741Y-115691928D02*
X118748741Y-114977642D01*
X118391598Y-115691928D02*
X118391598Y-114191928D01*
X118391598Y-114191928D02*
X118963027Y-114191928D01*
X118963027Y-114191928D02*
X119105884Y-114263357D01*
X119105884Y-114263357D02*
X119177313Y-114334785D01*
X119177313Y-114334785D02*
X119248741Y-114477642D01*
X119248741Y-114477642D02*
X119248741Y-114691928D01*
X119248741Y-114691928D02*
X119177313Y-114834785D01*
X119177313Y-114834785D02*
X119105884Y-114906214D01*
X119105884Y-114906214D02*
X118963027Y-114977642D01*
X118963027Y-114977642D02*
X118391598Y-114977642D01*
X119891598Y-114191928D02*
X119891598Y-115406214D01*
X119891598Y-115406214D02*
X119963027Y-115549071D01*
X119963027Y-115549071D02*
X120034456Y-115620500D01*
X120034456Y-115620500D02*
X120177313Y-115691928D01*
X120177313Y-115691928D02*
X120463027Y-115691928D01*
X120463027Y-115691928D02*
X120605884Y-115620500D01*
X120605884Y-115620500D02*
X120677313Y-115549071D01*
X120677313Y-115549071D02*
X120748741Y-115406214D01*
X120748741Y-115406214D02*
X120748741Y-114191928D01*
X121320170Y-114191928D02*
X122320170Y-114191928D01*
X122320170Y-114191928D02*
X121320170Y-115691928D01*
X121320170Y-115691928D02*
X122320170Y-115691928D01*
X124320170Y-114191928D02*
X124605884Y-114191928D01*
X124605884Y-114191928D02*
X124748741Y-114263357D01*
X124748741Y-114263357D02*
X124891598Y-114406214D01*
X124891598Y-114406214D02*
X124963027Y-114691928D01*
X124963027Y-114691928D02*
X124963027Y-115191928D01*
X124963027Y-115191928D02*
X124891598Y-115477642D01*
X124891598Y-115477642D02*
X124748741Y-115620500D01*
X124748741Y-115620500D02*
X124605884Y-115691928D01*
X124605884Y-115691928D02*
X124320170Y-115691928D01*
X124320170Y-115691928D02*
X124177313Y-115620500D01*
X124177313Y-115620500D02*
X124034455Y-115477642D01*
X124034455Y-115477642D02*
X123963027Y-115191928D01*
X123963027Y-115191928D02*
X123963027Y-114691928D01*
X123963027Y-114691928D02*
X124034455Y-114406214D01*
X124034455Y-114406214D02*
X124177313Y-114263357D01*
X124177313Y-114263357D02*
X124320170Y-114191928D01*
X125534456Y-115620500D02*
X125748742Y-115691928D01*
X125748742Y-115691928D02*
X126105884Y-115691928D01*
X126105884Y-115691928D02*
X126248742Y-115620500D01*
X126248742Y-115620500D02*
X126320170Y-115549071D01*
X126320170Y-115549071D02*
X126391599Y-115406214D01*
X126391599Y-115406214D02*
X126391599Y-115263357D01*
X126391599Y-115263357D02*
X126320170Y-115120500D01*
X126320170Y-115120500D02*
X126248742Y-115049071D01*
X126248742Y-115049071D02*
X126105884Y-114977642D01*
X126105884Y-114977642D02*
X125820170Y-114906214D01*
X125820170Y-114906214D02*
X125677313Y-114834785D01*
X125677313Y-114834785D02*
X125605884Y-114763357D01*
X125605884Y-114763357D02*
X125534456Y-114620500D01*
X125534456Y-114620500D02*
X125534456Y-114477642D01*
X125534456Y-114477642D02*
X125605884Y-114334785D01*
X125605884Y-114334785D02*
X125677313Y-114263357D01*
X125677313Y-114263357D02*
X125820170Y-114191928D01*
X125820170Y-114191928D02*
X126177313Y-114191928D01*
X126177313Y-114191928D02*
X126391599Y-114263357D01*
X127320170Y-114191928D02*
X127605884Y-114191928D01*
X127605884Y-114191928D02*
X127748741Y-114263357D01*
X127748741Y-114263357D02*
X127891598Y-114406214D01*
X127891598Y-114406214D02*
X127963027Y-114691928D01*
X127963027Y-114691928D02*
X127963027Y-115191928D01*
X127963027Y-115191928D02*
X127891598Y-115477642D01*
X127891598Y-115477642D02*
X127748741Y-115620500D01*
X127748741Y-115620500D02*
X127605884Y-115691928D01*
X127605884Y-115691928D02*
X127320170Y-115691928D01*
X127320170Y-115691928D02*
X127177313Y-115620500D01*
X127177313Y-115620500D02*
X127034455Y-115477642D01*
X127034455Y-115477642D02*
X126963027Y-115191928D01*
X126963027Y-115191928D02*
X126963027Y-114691928D01*
X126963027Y-114691928D02*
X127034455Y-114406214D01*
X127034455Y-114406214D02*
X127177313Y-114263357D01*
X127177313Y-114263357D02*
X127320170Y-114191928D01*
X129463027Y-115691928D02*
X128963027Y-114977642D01*
X128605884Y-115691928D02*
X128605884Y-114191928D01*
X128605884Y-114191928D02*
X129177313Y-114191928D01*
X129177313Y-114191928D02*
X129320170Y-114263357D01*
X129320170Y-114263357D02*
X129391599Y-114334785D01*
X129391599Y-114334785D02*
X129463027Y-114477642D01*
X129463027Y-114477642D02*
X129463027Y-114691928D01*
X129463027Y-114691928D02*
X129391599Y-114834785D01*
X129391599Y-114834785D02*
X129320170Y-114906214D01*
X129320170Y-114906214D02*
X129177313Y-114977642D01*
X129177313Y-114977642D02*
X128605884Y-114977642D01*
X130105884Y-115691928D02*
X130105884Y-114191928D01*
X131105885Y-114191928D02*
X131391599Y-114191928D01*
X131391599Y-114191928D02*
X131534456Y-114263357D01*
X131534456Y-114263357D02*
X131677313Y-114406214D01*
X131677313Y-114406214D02*
X131748742Y-114691928D01*
X131748742Y-114691928D02*
X131748742Y-115191928D01*
X131748742Y-115191928D02*
X131677313Y-115477642D01*
X131677313Y-115477642D02*
X131534456Y-115620500D01*
X131534456Y-115620500D02*
X131391599Y-115691928D01*
X131391599Y-115691928D02*
X131105885Y-115691928D01*
X131105885Y-115691928D02*
X130963028Y-115620500D01*
X130963028Y-115620500D02*
X130820170Y-115477642D01*
X130820170Y-115477642D02*
X130748742Y-115191928D01*
X130748742Y-115191928D02*
X130748742Y-114691928D01*
X130748742Y-114691928D02*
X130820170Y-114406214D01*
X130820170Y-114406214D02*
X130963028Y-114263357D01*
X130963028Y-114263357D02*
X131105885Y-114191928D01*
X134320171Y-115691928D02*
X133463028Y-115691928D01*
X133891599Y-115691928D02*
X133891599Y-114191928D01*
X133891599Y-114191928D02*
X133748742Y-114406214D01*
X133748742Y-114406214D02*
X133605885Y-114549071D01*
X133605885Y-114549071D02*
X133463028Y-114620500D01*
X135034456Y-115691928D02*
X135320170Y-115691928D01*
X135320170Y-115691928D02*
X135463027Y-115620500D01*
X135463027Y-115620500D02*
X135534456Y-115549071D01*
X135534456Y-115549071D02*
X135677313Y-115334785D01*
X135677313Y-115334785D02*
X135748742Y-115049071D01*
X135748742Y-115049071D02*
X135748742Y-114477642D01*
X135748742Y-114477642D02*
X135677313Y-114334785D01*
X135677313Y-114334785D02*
X135605885Y-114263357D01*
X135605885Y-114263357D02*
X135463027Y-114191928D01*
X135463027Y-114191928D02*
X135177313Y-114191928D01*
X135177313Y-114191928D02*
X135034456Y-114263357D01*
X135034456Y-114263357D02*
X134963027Y-114334785D01*
X134963027Y-114334785D02*
X134891599Y-114477642D01*
X134891599Y-114477642D02*
X134891599Y-114834785D01*
X134891599Y-114834785D02*
X134963027Y-114977642D01*
X134963027Y-114977642D02*
X135034456Y-115049071D01*
X135034456Y-115049071D02*
X135177313Y-115120500D01*
X135177313Y-115120500D02*
X135463027Y-115120500D01*
X135463027Y-115120500D02*
X135605885Y-115049071D01*
X135605885Y-115049071D02*
X135677313Y-114977642D01*
X135677313Y-114977642D02*
X135748742Y-114834785D01*
X136320170Y-114334785D02*
X136391598Y-114263357D01*
X136391598Y-114263357D02*
X136534456Y-114191928D01*
X136534456Y-114191928D02*
X136891598Y-114191928D01*
X136891598Y-114191928D02*
X137034456Y-114263357D01*
X137034456Y-114263357D02*
X137105884Y-114334785D01*
X137105884Y-114334785D02*
X137177313Y-114477642D01*
X137177313Y-114477642D02*
X137177313Y-114620500D01*
X137177313Y-114620500D02*
X137105884Y-114834785D01*
X137105884Y-114834785D02*
X136248741Y-115691928D01*
X136248741Y-115691928D02*
X137177313Y-115691928D01*
X138463027Y-114191928D02*
X138177312Y-114191928D01*
X138177312Y-114191928D02*
X138034455Y-114263357D01*
X138034455Y-114263357D02*
X137963027Y-114334785D01*
X137963027Y-114334785D02*
X137820169Y-114549071D01*
X137820169Y-114549071D02*
X137748741Y-114834785D01*
X137748741Y-114834785D02*
X137748741Y-115406214D01*
X137748741Y-115406214D02*
X137820169Y-115549071D01*
X137820169Y-115549071D02*
X137891598Y-115620500D01*
X137891598Y-115620500D02*
X138034455Y-115691928D01*
X138034455Y-115691928D02*
X138320169Y-115691928D01*
X138320169Y-115691928D02*
X138463027Y-115620500D01*
X138463027Y-115620500D02*
X138534455Y-115549071D01*
X138534455Y-115549071D02*
X138605884Y-115406214D01*
X138605884Y-115406214D02*
X138605884Y-115049071D01*
X138605884Y-115049071D02*
X138534455Y-114906214D01*
X138534455Y-114906214D02*
X138463027Y-114834785D01*
X138463027Y-114834785D02*
X138320169Y-114763357D01*
X138320169Y-114763357D02*
X138034455Y-114763357D01*
X138034455Y-114763357D02*
X137891598Y-114834785D01*
X137891598Y-114834785D02*
X137820169Y-114906214D01*
X137820169Y-114906214D02*
X137748741Y-115049071D01*
X139105883Y-114191928D02*
X140034455Y-114191928D01*
X140034455Y-114191928D02*
X139534455Y-114763357D01*
X139534455Y-114763357D02*
X139748740Y-114763357D01*
X139748740Y-114763357D02*
X139891598Y-114834785D01*
X139891598Y-114834785D02*
X139963026Y-114906214D01*
X139963026Y-114906214D02*
X140034455Y-115049071D01*
X140034455Y-115049071D02*
X140034455Y-115406214D01*
X140034455Y-115406214D02*
X139963026Y-115549071D01*
X139963026Y-115549071D02*
X139891598Y-115620500D01*
X139891598Y-115620500D02*
X139748740Y-115691928D01*
X139748740Y-115691928D02*
X139320169Y-115691928D01*
X139320169Y-115691928D02*
X139177312Y-115620500D01*
X139177312Y-115620500D02*
X139105883Y-115549071D01*
X140534454Y-114191928D02*
X141534454Y-114191928D01*
X141534454Y-114191928D02*
X140891597Y-115691928D01*
D10*
D11*
X91463026Y-112691928D02*
X91463026Y-111191928D01*
X91463026Y-111191928D02*
X91820169Y-111191928D01*
X91820169Y-111191928D02*
X92034455Y-111263357D01*
X92034455Y-111263357D02*
X92177312Y-111406214D01*
X92177312Y-111406214D02*
X92248741Y-111549071D01*
X92248741Y-111549071D02*
X92320169Y-111834785D01*
X92320169Y-111834785D02*
X92320169Y-112049071D01*
X92320169Y-112049071D02*
X92248741Y-112334785D01*
X92248741Y-112334785D02*
X92177312Y-112477642D01*
X92177312Y-112477642D02*
X92034455Y-112620500D01*
X92034455Y-112620500D02*
X91820169Y-112691928D01*
X91820169Y-112691928D02*
X91463026Y-112691928D01*
X92891598Y-112263357D02*
X93605884Y-112263357D01*
X92748741Y-112691928D02*
X93248741Y-111191928D01*
X93248741Y-111191928D02*
X93748741Y-112691928D01*
X94248740Y-112691928D02*
X94248740Y-111191928D01*
X94248740Y-111191928D02*
X95105883Y-112691928D01*
X95105883Y-112691928D02*
X95105883Y-111191928D01*
X95820169Y-112691928D02*
X95820169Y-111191928D01*
X96534455Y-111906214D02*
X97034455Y-111906214D01*
X97248741Y-112691928D02*
X96534455Y-112691928D01*
X96534455Y-112691928D02*
X96534455Y-111191928D01*
X96534455Y-111191928D02*
X97248741Y-111191928D01*
X98605884Y-112691928D02*
X97891598Y-112691928D01*
X97891598Y-112691928D02*
X97891598Y-111191928D01*
X99034456Y-112263357D02*
X99748742Y-112263357D01*
X98891599Y-112691928D02*
X99391599Y-111191928D01*
X99391599Y-111191928D02*
X99891599Y-112691928D01*
X101820170Y-111977642D02*
X101820170Y-112691928D01*
X101320170Y-111191928D02*
X101820170Y-111977642D01*
X101820170Y-111977642D02*
X102320170Y-111191928D01*
X102748741Y-112263357D02*
X103463027Y-112263357D01*
X102605884Y-112691928D02*
X103105884Y-111191928D01*
X103105884Y-111191928D02*
X103605884Y-112691928D01*
X103963026Y-111191928D02*
X104963026Y-111191928D01*
X104963026Y-111191928D02*
X103963026Y-112691928D01*
X103963026Y-112691928D02*
X104963026Y-112691928D01*
X105534454Y-112691928D02*
X105534454Y-111191928D01*
X105534454Y-111191928D02*
X106034454Y-112263357D01*
X106034454Y-112263357D02*
X106534454Y-111191928D01*
X106534454Y-111191928D02*
X106534454Y-112691928D01*
X107248740Y-112691928D02*
X107248740Y-111191928D01*
X107963026Y-112691928D02*
X107963026Y-111191928D01*
X107963026Y-111191928D02*
X108820169Y-112691928D01*
X108820169Y-112691928D02*
X108820169Y-111191928D01*
X110463027Y-111191928D02*
X111320170Y-111191928D01*
X110891598Y-112691928D02*
X110891598Y-111191928D01*
X111748741Y-112263357D02*
X112463027Y-112263357D01*
X111605884Y-112691928D02*
X112105884Y-111191928D01*
X112105884Y-111191928D02*
X112605884Y-112691928D01*
X113963026Y-112691928D02*
X113463026Y-111977642D01*
X113105883Y-112691928D02*
X113105883Y-111191928D01*
X113105883Y-111191928D02*
X113677312Y-111191928D01*
X113677312Y-111191928D02*
X113820169Y-111263357D01*
X113820169Y-111263357D02*
X113891598Y-111334785D01*
X113891598Y-111334785D02*
X113963026Y-111477642D01*
X113963026Y-111477642D02*
X113963026Y-111691928D01*
X113963026Y-111691928D02*
X113891598Y-111834785D01*
X113891598Y-111834785D02*
X113820169Y-111906214D01*
X113820169Y-111906214D02*
X113677312Y-111977642D01*
X113677312Y-111977642D02*
X113105883Y-111977642D01*
X114534455Y-112263357D02*
X115248741Y-112263357D01*
X114391598Y-112691928D02*
X114891598Y-111191928D01*
X114891598Y-111191928D02*
X115391598Y-112691928D01*
X115891597Y-112691928D02*
X115891597Y-111191928D01*
X115891597Y-111191928D02*
X116748740Y-112691928D01*
X116748740Y-112691928D02*
X116748740Y-111191928D01*
X118248741Y-111263357D02*
X118105884Y-111191928D01*
X118105884Y-111191928D02*
X117891598Y-111191928D01*
X117891598Y-111191928D02*
X117677312Y-111263357D01*
X117677312Y-111263357D02*
X117534455Y-111406214D01*
X117534455Y-111406214D02*
X117463026Y-111549071D01*
X117463026Y-111549071D02*
X117391598Y-111834785D01*
X117391598Y-111834785D02*
X117391598Y-112049071D01*
X117391598Y-112049071D02*
X117463026Y-112334785D01*
X117463026Y-112334785D02*
X117534455Y-112477642D01*
X117534455Y-112477642D02*
X117677312Y-112620500D01*
X117677312Y-112620500D02*
X117891598Y-112691928D01*
X117891598Y-112691928D02*
X118034455Y-112691928D01*
X118034455Y-112691928D02*
X118248741Y-112620500D01*
X118248741Y-112620500D02*
X118320169Y-112549071D01*
X118320169Y-112549071D02*
X118320169Y-112049071D01*
X118320169Y-112049071D02*
X118034455Y-112049071D01*
X119248741Y-111191928D02*
X119534455Y-111191928D01*
X119534455Y-111191928D02*
X119677312Y-111263357D01*
X119677312Y-111263357D02*
X119820169Y-111406214D01*
X119820169Y-111406214D02*
X119891598Y-111691928D01*
X119891598Y-111691928D02*
X119891598Y-112191928D01*
X119891598Y-112191928D02*
X119820169Y-112477642D01*
X119820169Y-112477642D02*
X119677312Y-112620500D01*
X119677312Y-112620500D02*
X119534455Y-112691928D01*
X119534455Y-112691928D02*
X119248741Y-112691928D01*
X119248741Y-112691928D02*
X119105884Y-112620500D01*
X119105884Y-112620500D02*
X118963026Y-112477642D01*
X118963026Y-112477642D02*
X118891598Y-112191928D01*
X118891598Y-112191928D02*
X118891598Y-111691928D01*
X118891598Y-111691928D02*
X118963026Y-111406214D01*
X118963026Y-111406214D02*
X119105884Y-111263357D01*
X119105884Y-111263357D02*
X119248741Y-111191928D01*
X121677312Y-112691928D02*
X121677312Y-111191928D01*
X121677312Y-111191928D02*
X122177312Y-112263357D01*
X122177312Y-112263357D02*
X122677312Y-111191928D01*
X122677312Y-111191928D02*
X122677312Y-112691928D01*
X123677313Y-111191928D02*
X123963027Y-111191928D01*
X123963027Y-111191928D02*
X124105884Y-111263357D01*
X124105884Y-111263357D02*
X124248741Y-111406214D01*
X124248741Y-111406214D02*
X124320170Y-111691928D01*
X124320170Y-111691928D02*
X124320170Y-112191928D01*
X124320170Y-112191928D02*
X124248741Y-112477642D01*
X124248741Y-112477642D02*
X124105884Y-112620500D01*
X124105884Y-112620500D02*
X123963027Y-112691928D01*
X123963027Y-112691928D02*
X123677313Y-112691928D01*
X123677313Y-112691928D02*
X123534456Y-112620500D01*
X123534456Y-112620500D02*
X123391598Y-112477642D01*
X123391598Y-112477642D02*
X123320170Y-112191928D01*
X123320170Y-112191928D02*
X123320170Y-111691928D01*
X123320170Y-111691928D02*
X123391598Y-111406214D01*
X123391598Y-111406214D02*
X123534456Y-111263357D01*
X123534456Y-111263357D02*
X123677313Y-111191928D01*
X124963027Y-112691928D02*
X124963027Y-111191928D01*
X124963027Y-111191928D02*
X125820170Y-112691928D01*
X125820170Y-112691928D02*
X125820170Y-111191928D01*
X126320171Y-111191928D02*
X127177314Y-111191928D01*
X126748742Y-112691928D02*
X126748742Y-111191928D01*
X127677313Y-111906214D02*
X128177313Y-111906214D01*
X128391599Y-112691928D02*
X127677313Y-112691928D01*
X127677313Y-112691928D02*
X127677313Y-111191928D01*
X127677313Y-111191928D02*
X128391599Y-111191928D01*
X128963028Y-112620500D02*
X129177314Y-112691928D01*
X129177314Y-112691928D02*
X129534456Y-112691928D01*
X129534456Y-112691928D02*
X129677314Y-112620500D01*
X129677314Y-112620500D02*
X129748742Y-112549071D01*
X129748742Y-112549071D02*
X129820171Y-112406214D01*
X129820171Y-112406214D02*
X129820171Y-112263357D01*
X129820171Y-112263357D02*
X129748742Y-112120500D01*
X129748742Y-112120500D02*
X129677314Y-112049071D01*
X129677314Y-112049071D02*
X129534456Y-111977642D01*
X129534456Y-111977642D02*
X129248742Y-111906214D01*
X129248742Y-111906214D02*
X129105885Y-111834785D01*
X129105885Y-111834785D02*
X129034456Y-111763357D01*
X129034456Y-111763357D02*
X128963028Y-111620500D01*
X128963028Y-111620500D02*
X128963028Y-111477642D01*
X128963028Y-111477642D02*
X129034456Y-111334785D01*
X129034456Y-111334785D02*
X129105885Y-111263357D01*
X129105885Y-111263357D02*
X129248742Y-111191928D01*
X129248742Y-111191928D02*
X129605885Y-111191928D01*
X129605885Y-111191928D02*
X129820171Y-111263357D01*
X131534456Y-111334785D02*
X131605884Y-111263357D01*
X131605884Y-111263357D02*
X131748742Y-111191928D01*
X131748742Y-111191928D02*
X132105884Y-111191928D01*
X132105884Y-111191928D02*
X132248742Y-111263357D01*
X132248742Y-111263357D02*
X132320170Y-111334785D01*
X132320170Y-111334785D02*
X132391599Y-111477642D01*
X132391599Y-111477642D02*
X132391599Y-111620500D01*
X132391599Y-111620500D02*
X132320170Y-111834785D01*
X132320170Y-111834785D02*
X131463027Y-112691928D01*
X131463027Y-112691928D02*
X132391599Y-112691928D01*
X133320170Y-111191928D02*
X133463027Y-111191928D01*
X133463027Y-111191928D02*
X133605884Y-111263357D01*
X133605884Y-111263357D02*
X133677313Y-111334785D01*
X133677313Y-111334785D02*
X133748741Y-111477642D01*
X133748741Y-111477642D02*
X133820170Y-111763357D01*
X133820170Y-111763357D02*
X133820170Y-112120500D01*
X133820170Y-112120500D02*
X133748741Y-112406214D01*
X133748741Y-112406214D02*
X133677313Y-112549071D01*
X133677313Y-112549071D02*
X133605884Y-112620500D01*
X133605884Y-112620500D02*
X133463027Y-112691928D01*
X133463027Y-112691928D02*
X133320170Y-112691928D01*
X133320170Y-112691928D02*
X133177313Y-112620500D01*
X133177313Y-112620500D02*
X133105884Y-112549071D01*
X133105884Y-112549071D02*
X133034455Y-112406214D01*
X133034455Y-112406214D02*
X132963027Y-112120500D01*
X132963027Y-112120500D02*
X132963027Y-111763357D01*
X132963027Y-111763357D02*
X133034455Y-111477642D01*
X133034455Y-111477642D02*
X133105884Y-111334785D01*
X133105884Y-111334785D02*
X133177313Y-111263357D01*
X133177313Y-111263357D02*
X133320170Y-111191928D01*
X135248741Y-112691928D02*
X134391598Y-112691928D01*
X134820169Y-112691928D02*
X134820169Y-111191928D01*
X134820169Y-111191928D02*
X134677312Y-111406214D01*
X134677312Y-111406214D02*
X134534455Y-111549071D01*
X134534455Y-111549071D02*
X134391598Y-111620500D01*
X136677312Y-112691928D02*
X135820169Y-112691928D01*
X136248740Y-112691928D02*
X136248740Y-111191928D01*
X136248740Y-111191928D02*
X136105883Y-111406214D01*
X136105883Y-111406214D02*
X135963026Y-111549071D01*
X135963026Y-111549071D02*
X135820169Y-111620500D01*
X138034454Y-111191928D02*
X137320168Y-111191928D01*
X137320168Y-111191928D02*
X137248740Y-111906214D01*
X137248740Y-111906214D02*
X137320168Y-111834785D01*
X137320168Y-111834785D02*
X137463026Y-111763357D01*
X137463026Y-111763357D02*
X137820168Y-111763357D01*
X137820168Y-111763357D02*
X137963026Y-111834785D01*
X137963026Y-111834785D02*
X138034454Y-111906214D01*
X138034454Y-111906214D02*
X138105883Y-112049071D01*
X138105883Y-112049071D02*
X138105883Y-112406214D01*
X138105883Y-112406214D02*
X138034454Y-112549071D01*
X138034454Y-112549071D02*
X137963026Y-112620500D01*
X137963026Y-112620500D02*
X137820168Y-112691928D01*
X137820168Y-112691928D02*
X137463026Y-112691928D01*
X137463026Y-112691928D02*
X137320168Y-112620500D01*
X137320168Y-112620500D02*
X137248740Y-112549071D01*
X138605882Y-111191928D02*
X139534454Y-111191928D01*
X139534454Y-111191928D02*
X139034454Y-111763357D01*
X139034454Y-111763357D02*
X139248739Y-111763357D01*
X139248739Y-111763357D02*
X139391597Y-111834785D01*
X139391597Y-111834785D02*
X139463025Y-111906214D01*
X139463025Y-111906214D02*
X139534454Y-112049071D01*
X139534454Y-112049071D02*
X139534454Y-112406214D01*
X139534454Y-112406214D02*
X139463025Y-112549071D01*
X139463025Y-112549071D02*
X139391597Y-112620500D01*
X139391597Y-112620500D02*
X139248739Y-112691928D01*
X139248739Y-112691928D02*
X138820168Y-112691928D01*
X138820168Y-112691928D02*
X138677311Y-112620500D01*
X138677311Y-112620500D02*
X138605882Y-112549071D01*
D10*
D11*
X91891598Y-108191928D02*
X91891598Y-109263357D01*
X91891598Y-109263357D02*
X91820169Y-109477642D01*
X91820169Y-109477642D02*
X91677312Y-109620500D01*
X91677312Y-109620500D02*
X91463026Y-109691928D01*
X91463026Y-109691928D02*
X91320169Y-109691928D01*
X92891598Y-108191928D02*
X93177312Y-108191928D01*
X93177312Y-108191928D02*
X93320169Y-108263357D01*
X93320169Y-108263357D02*
X93463026Y-108406214D01*
X93463026Y-108406214D02*
X93534455Y-108691928D01*
X93534455Y-108691928D02*
X93534455Y-109191928D01*
X93534455Y-109191928D02*
X93463026Y-109477642D01*
X93463026Y-109477642D02*
X93320169Y-109620500D01*
X93320169Y-109620500D02*
X93177312Y-109691928D01*
X93177312Y-109691928D02*
X92891598Y-109691928D01*
X92891598Y-109691928D02*
X92748741Y-109620500D01*
X92748741Y-109620500D02*
X92605883Y-109477642D01*
X92605883Y-109477642D02*
X92534455Y-109191928D01*
X92534455Y-109191928D02*
X92534455Y-108691928D01*
X92534455Y-108691928D02*
X92605883Y-108406214D01*
X92605883Y-108406214D02*
X92748741Y-108263357D01*
X92748741Y-108263357D02*
X92891598Y-108191928D01*
X94105884Y-109620500D02*
X94320170Y-109691928D01*
X94320170Y-109691928D02*
X94677312Y-109691928D01*
X94677312Y-109691928D02*
X94820170Y-109620500D01*
X94820170Y-109620500D02*
X94891598Y-109549071D01*
X94891598Y-109549071D02*
X94963027Y-109406214D01*
X94963027Y-109406214D02*
X94963027Y-109263357D01*
X94963027Y-109263357D02*
X94891598Y-109120500D01*
X94891598Y-109120500D02*
X94820170Y-109049071D01*
X94820170Y-109049071D02*
X94677312Y-108977642D01*
X94677312Y-108977642D02*
X94391598Y-108906214D01*
X94391598Y-108906214D02*
X94248741Y-108834785D01*
X94248741Y-108834785D02*
X94177312Y-108763357D01*
X94177312Y-108763357D02*
X94105884Y-108620500D01*
X94105884Y-108620500D02*
X94105884Y-108477642D01*
X94105884Y-108477642D02*
X94177312Y-108334785D01*
X94177312Y-108334785D02*
X94248741Y-108263357D01*
X94248741Y-108263357D02*
X94391598Y-108191928D01*
X94391598Y-108191928D02*
X94748741Y-108191928D01*
X94748741Y-108191928D02*
X94963027Y-108263357D01*
X95605883Y-108906214D02*
X96105883Y-108906214D01*
X96320169Y-109691928D02*
X95605883Y-109691928D01*
X95605883Y-109691928D02*
X95605883Y-108191928D01*
X95605883Y-108191928D02*
X96320169Y-108191928D01*
X98391598Y-108191928D02*
X98677312Y-108191928D01*
X98677312Y-108191928D02*
X98820169Y-108263357D01*
X98820169Y-108263357D02*
X98963026Y-108406214D01*
X98963026Y-108406214D02*
X99034455Y-108691928D01*
X99034455Y-108691928D02*
X99034455Y-109191928D01*
X99034455Y-109191928D02*
X98963026Y-109477642D01*
X98963026Y-109477642D02*
X98820169Y-109620500D01*
X98820169Y-109620500D02*
X98677312Y-109691928D01*
X98677312Y-109691928D02*
X98391598Y-109691928D01*
X98391598Y-109691928D02*
X98248741Y-109620500D01*
X98248741Y-109620500D02*
X98105883Y-109477642D01*
X98105883Y-109477642D02*
X98034455Y-109191928D01*
X98034455Y-109191928D02*
X98034455Y-108691928D01*
X98034455Y-108691928D02*
X98105883Y-108406214D01*
X98105883Y-108406214D02*
X98248741Y-108263357D01*
X98248741Y-108263357D02*
X98391598Y-108191928D01*
X100534455Y-109691928D02*
X100034455Y-108977642D01*
X99677312Y-109691928D02*
X99677312Y-108191928D01*
X99677312Y-108191928D02*
X100248741Y-108191928D01*
X100248741Y-108191928D02*
X100391598Y-108263357D01*
X100391598Y-108263357D02*
X100463027Y-108334785D01*
X100463027Y-108334785D02*
X100534455Y-108477642D01*
X100534455Y-108477642D02*
X100534455Y-108691928D01*
X100534455Y-108691928D02*
X100463027Y-108834785D01*
X100463027Y-108834785D02*
X100391598Y-108906214D01*
X100391598Y-108906214D02*
X100248741Y-108977642D01*
X100248741Y-108977642D02*
X99677312Y-108977642D01*
X101891598Y-109691928D02*
X101177312Y-109691928D01*
X101177312Y-109691928D02*
X101177312Y-108191928D01*
X102320170Y-109263357D02*
X103034456Y-109263357D01*
X102177313Y-109691928D02*
X102677313Y-108191928D01*
X102677313Y-108191928D02*
X103177313Y-109691928D01*
X103677312Y-109691928D02*
X103677312Y-108191928D01*
X103677312Y-108191928D02*
X104534455Y-109691928D01*
X104534455Y-109691928D02*
X104534455Y-108191928D01*
X105248741Y-109691928D02*
X105248741Y-108191928D01*
X105248741Y-108191928D02*
X105605884Y-108191928D01*
X105605884Y-108191928D02*
X105820170Y-108263357D01*
X105820170Y-108263357D02*
X105963027Y-108406214D01*
X105963027Y-108406214D02*
X106034456Y-108549071D01*
X106034456Y-108549071D02*
X106105884Y-108834785D01*
X106105884Y-108834785D02*
X106105884Y-109049071D01*
X106105884Y-109049071D02*
X106034456Y-109334785D01*
X106034456Y-109334785D02*
X105963027Y-109477642D01*
X105963027Y-109477642D02*
X105820170Y-109620500D01*
X105820170Y-109620500D02*
X105605884Y-109691928D01*
X105605884Y-109691928D02*
X105248741Y-109691928D01*
X107034456Y-108191928D02*
X107320170Y-108191928D01*
X107320170Y-108191928D02*
X107463027Y-108263357D01*
X107463027Y-108263357D02*
X107605884Y-108406214D01*
X107605884Y-108406214D02*
X107677313Y-108691928D01*
X107677313Y-108691928D02*
X107677313Y-109191928D01*
X107677313Y-109191928D02*
X107605884Y-109477642D01*
X107605884Y-109477642D02*
X107463027Y-109620500D01*
X107463027Y-109620500D02*
X107320170Y-109691928D01*
X107320170Y-109691928D02*
X107034456Y-109691928D01*
X107034456Y-109691928D02*
X106891599Y-109620500D01*
X106891599Y-109620500D02*
X106748741Y-109477642D01*
X106748741Y-109477642D02*
X106677313Y-109191928D01*
X106677313Y-109191928D02*
X106677313Y-108691928D01*
X106677313Y-108691928D02*
X106748741Y-108406214D01*
X106748741Y-108406214D02*
X106891599Y-108263357D01*
X106891599Y-108263357D02*
X107034456Y-108191928D01*
X109463027Y-109691928D02*
X109463027Y-108191928D01*
X109463027Y-108191928D02*
X109963027Y-109263357D01*
X109963027Y-109263357D02*
X110463027Y-108191928D01*
X110463027Y-108191928D02*
X110463027Y-109691928D01*
X111105885Y-109263357D02*
X111820171Y-109263357D01*
X110963028Y-109691928D02*
X111463028Y-108191928D01*
X111463028Y-108191928D02*
X111963028Y-109691928D01*
X113320170Y-109691928D02*
X112820170Y-108977642D01*
X112463027Y-109691928D02*
X112463027Y-108191928D01*
X112463027Y-108191928D02*
X113034456Y-108191928D01*
X113034456Y-108191928D02*
X113177313Y-108263357D01*
X113177313Y-108263357D02*
X113248742Y-108334785D01*
X113248742Y-108334785D02*
X113320170Y-108477642D01*
X113320170Y-108477642D02*
X113320170Y-108691928D01*
X113320170Y-108691928D02*
X113248742Y-108834785D01*
X113248742Y-108834785D02*
X113177313Y-108906214D01*
X113177313Y-108906214D02*
X113034456Y-108977642D01*
X113034456Y-108977642D02*
X112463027Y-108977642D01*
X113748742Y-108191928D02*
X114605885Y-108191928D01*
X114177313Y-109691928D02*
X114177313Y-108191928D01*
X115105884Y-109691928D02*
X115105884Y-108191928D01*
X115820170Y-109691928D02*
X115820170Y-108191928D01*
X115820170Y-108191928D02*
X116677313Y-109691928D01*
X116677313Y-109691928D02*
X116677313Y-108191928D01*
X117391599Y-108906214D02*
X117891599Y-108906214D01*
X118105885Y-109691928D02*
X117391599Y-109691928D01*
X117391599Y-109691928D02*
X117391599Y-108191928D01*
X117391599Y-108191928D02*
X118105885Y-108191928D01*
X118605885Y-108191928D02*
X119605885Y-108191928D01*
X119605885Y-108191928D02*
X118605885Y-109691928D01*
X118605885Y-109691928D02*
X119605885Y-109691928D01*
X122105885Y-108263357D02*
X121963028Y-108191928D01*
X121963028Y-108191928D02*
X121748742Y-108191928D01*
X121748742Y-108191928D02*
X121534456Y-108263357D01*
X121534456Y-108263357D02*
X121391599Y-108406214D01*
X121391599Y-108406214D02*
X121320170Y-108549071D01*
X121320170Y-108549071D02*
X121248742Y-108834785D01*
X121248742Y-108834785D02*
X121248742Y-109049071D01*
X121248742Y-109049071D02*
X121320170Y-109334785D01*
X121320170Y-109334785D02*
X121391599Y-109477642D01*
X121391599Y-109477642D02*
X121534456Y-109620500D01*
X121534456Y-109620500D02*
X121748742Y-109691928D01*
X121748742Y-109691928D02*
X121891599Y-109691928D01*
X121891599Y-109691928D02*
X122105885Y-109620500D01*
X122105885Y-109620500D02*
X122177313Y-109549071D01*
X122177313Y-109549071D02*
X122177313Y-109049071D01*
X122177313Y-109049071D02*
X121891599Y-109049071D01*
X123105885Y-108191928D02*
X123391599Y-108191928D01*
X123391599Y-108191928D02*
X123534456Y-108263357D01*
X123534456Y-108263357D02*
X123677313Y-108406214D01*
X123677313Y-108406214D02*
X123748742Y-108691928D01*
X123748742Y-108691928D02*
X123748742Y-109191928D01*
X123748742Y-109191928D02*
X123677313Y-109477642D01*
X123677313Y-109477642D02*
X123534456Y-109620500D01*
X123534456Y-109620500D02*
X123391599Y-109691928D01*
X123391599Y-109691928D02*
X123105885Y-109691928D01*
X123105885Y-109691928D02*
X122963028Y-109620500D01*
X122963028Y-109620500D02*
X122820170Y-109477642D01*
X122820170Y-109477642D02*
X122748742Y-109191928D01*
X122748742Y-109191928D02*
X122748742Y-108691928D01*
X122748742Y-108691928D02*
X122820170Y-108406214D01*
X122820170Y-108406214D02*
X122963028Y-108263357D01*
X122963028Y-108263357D02*
X123105885Y-108191928D01*
X124391599Y-109691928D02*
X124391599Y-108191928D01*
X124391599Y-108191928D02*
X125248742Y-109691928D01*
X125248742Y-109691928D02*
X125248742Y-108191928D01*
X125820171Y-108191928D02*
X126820171Y-108191928D01*
X126820171Y-108191928D02*
X125820171Y-109691928D01*
X125820171Y-109691928D02*
X126820171Y-109691928D01*
X127320171Y-109263357D02*
X128034457Y-109263357D01*
X127177314Y-109691928D02*
X127677314Y-108191928D01*
X127677314Y-108191928D02*
X128177314Y-109691928D01*
X129391599Y-109691928D02*
X128677313Y-109691928D01*
X128677313Y-109691928D02*
X128677313Y-108191928D01*
X129891599Y-108906214D02*
X130391599Y-108906214D01*
X130605885Y-109691928D02*
X129891599Y-109691928D01*
X129891599Y-109691928D02*
X129891599Y-108191928D01*
X129891599Y-108191928D02*
X130605885Y-108191928D01*
X131105885Y-108191928D02*
X132105885Y-108191928D01*
X132105885Y-108191928D02*
X131105885Y-109691928D01*
X131105885Y-109691928D02*
X132105885Y-109691928D01*
X133748742Y-108334785D02*
X133820170Y-108263357D01*
X133820170Y-108263357D02*
X133963028Y-108191928D01*
X133963028Y-108191928D02*
X134320170Y-108191928D01*
X134320170Y-108191928D02*
X134463028Y-108263357D01*
X134463028Y-108263357D02*
X134534456Y-108334785D01*
X134534456Y-108334785D02*
X134605885Y-108477642D01*
X134605885Y-108477642D02*
X134605885Y-108620500D01*
X134605885Y-108620500D02*
X134534456Y-108834785D01*
X134534456Y-108834785D02*
X133677313Y-109691928D01*
X133677313Y-109691928D02*
X134605885Y-109691928D01*
X135534456Y-108191928D02*
X135677313Y-108191928D01*
X135677313Y-108191928D02*
X135820170Y-108263357D01*
X135820170Y-108263357D02*
X135891599Y-108334785D01*
X135891599Y-108334785D02*
X135963027Y-108477642D01*
X135963027Y-108477642D02*
X136034456Y-108763357D01*
X136034456Y-108763357D02*
X136034456Y-109120500D01*
X136034456Y-109120500D02*
X135963027Y-109406214D01*
X135963027Y-109406214D02*
X135891599Y-109549071D01*
X135891599Y-109549071D02*
X135820170Y-109620500D01*
X135820170Y-109620500D02*
X135677313Y-109691928D01*
X135677313Y-109691928D02*
X135534456Y-109691928D01*
X135534456Y-109691928D02*
X135391599Y-109620500D01*
X135391599Y-109620500D02*
X135320170Y-109549071D01*
X135320170Y-109549071D02*
X135248741Y-109406214D01*
X135248741Y-109406214D02*
X135177313Y-109120500D01*
X135177313Y-109120500D02*
X135177313Y-108763357D01*
X135177313Y-108763357D02*
X135248741Y-108477642D01*
X135248741Y-108477642D02*
X135320170Y-108334785D01*
X135320170Y-108334785D02*
X135391599Y-108263357D01*
X135391599Y-108263357D02*
X135534456Y-108191928D01*
X137463027Y-109691928D02*
X136605884Y-109691928D01*
X137034455Y-109691928D02*
X137034455Y-108191928D01*
X137034455Y-108191928D02*
X136891598Y-108406214D01*
X136891598Y-108406214D02*
X136748741Y-108549071D01*
X136748741Y-108549071D02*
X136605884Y-108620500D01*
X138748741Y-108691928D02*
X138748741Y-109691928D01*
X138391598Y-108120500D02*
X138034455Y-109191928D01*
X138034455Y-109191928D02*
X138963026Y-109191928D01*
X139391597Y-108191928D02*
X140391597Y-108191928D01*
X140391597Y-108191928D02*
X139748740Y-109691928D01*
X141748740Y-109691928D02*
X140891597Y-109691928D01*
X141320168Y-109691928D02*
X141320168Y-108191928D01*
X141320168Y-108191928D02*
X141177311Y-108406214D01*
X141177311Y-108406214D02*
X141034454Y-108549071D01*
X141034454Y-108549071D02*
X140891597Y-108620500D01*
D10*
D11*
X91963026Y-105906214D02*
X92177312Y-105977642D01*
X92177312Y-105977642D02*
X92248741Y-106049071D01*
X92248741Y-106049071D02*
X92320169Y-106191928D01*
X92320169Y-106191928D02*
X92320169Y-106406214D01*
X92320169Y-106406214D02*
X92248741Y-106549071D01*
X92248741Y-106549071D02*
X92177312Y-106620500D01*
X92177312Y-106620500D02*
X92034455Y-106691928D01*
X92034455Y-106691928D02*
X91463026Y-106691928D01*
X91463026Y-106691928D02*
X91463026Y-105191928D01*
X91463026Y-105191928D02*
X91963026Y-105191928D01*
X91963026Y-105191928D02*
X92105884Y-105263357D01*
X92105884Y-105263357D02*
X92177312Y-105334785D01*
X92177312Y-105334785D02*
X92248741Y-105477642D01*
X92248741Y-105477642D02*
X92248741Y-105620500D01*
X92248741Y-105620500D02*
X92177312Y-105763357D01*
X92177312Y-105763357D02*
X92105884Y-105834785D01*
X92105884Y-105834785D02*
X91963026Y-105906214D01*
X91963026Y-105906214D02*
X91463026Y-105906214D01*
X92963026Y-105906214D02*
X93463026Y-105906214D01*
X93677312Y-106691928D02*
X92963026Y-106691928D01*
X92963026Y-106691928D02*
X92963026Y-105191928D01*
X92963026Y-105191928D02*
X93677312Y-105191928D01*
X95177312Y-106691928D02*
X94677312Y-105977642D01*
X94320169Y-106691928D02*
X94320169Y-105191928D01*
X94320169Y-105191928D02*
X94891598Y-105191928D01*
X94891598Y-105191928D02*
X95034455Y-105263357D01*
X95034455Y-105263357D02*
X95105884Y-105334785D01*
X95105884Y-105334785D02*
X95177312Y-105477642D01*
X95177312Y-105477642D02*
X95177312Y-105691928D01*
X95177312Y-105691928D02*
X95105884Y-105834785D01*
X95105884Y-105834785D02*
X95034455Y-105906214D01*
X95034455Y-105906214D02*
X94891598Y-105977642D01*
X94891598Y-105977642D02*
X94320169Y-105977642D01*
X95820169Y-106691928D02*
X95820169Y-105191928D01*
X95820169Y-105191928D02*
X96677312Y-106691928D01*
X96677312Y-106691928D02*
X96677312Y-105191928D01*
X97320170Y-106263357D02*
X98034456Y-106263357D01*
X97177313Y-106691928D02*
X97677313Y-105191928D01*
X97677313Y-105191928D02*
X98177313Y-106691928D01*
X99534455Y-106691928D02*
X99034455Y-105977642D01*
X98677312Y-106691928D02*
X98677312Y-105191928D01*
X98677312Y-105191928D02*
X99248741Y-105191928D01*
X99248741Y-105191928D02*
X99391598Y-105263357D01*
X99391598Y-105263357D02*
X99463027Y-105334785D01*
X99463027Y-105334785D02*
X99534455Y-105477642D01*
X99534455Y-105477642D02*
X99534455Y-105691928D01*
X99534455Y-105691928D02*
X99463027Y-105834785D01*
X99463027Y-105834785D02*
X99391598Y-105906214D01*
X99391598Y-105906214D02*
X99248741Y-105977642D01*
X99248741Y-105977642D02*
X98677312Y-105977642D01*
X100177312Y-106691928D02*
X100177312Y-105191928D01*
X100177312Y-105191928D02*
X100534455Y-105191928D01*
X100534455Y-105191928D02*
X100748741Y-105263357D01*
X100748741Y-105263357D02*
X100891598Y-105406214D01*
X100891598Y-105406214D02*
X100963027Y-105549071D01*
X100963027Y-105549071D02*
X101034455Y-105834785D01*
X101034455Y-105834785D02*
X101034455Y-106049071D01*
X101034455Y-106049071D02*
X100963027Y-106334785D01*
X100963027Y-106334785D02*
X100891598Y-106477642D01*
X100891598Y-106477642D02*
X100748741Y-106620500D01*
X100748741Y-106620500D02*
X100534455Y-106691928D01*
X100534455Y-106691928D02*
X100177312Y-106691928D01*
X101963027Y-105191928D02*
X102248741Y-105191928D01*
X102248741Y-105191928D02*
X102391598Y-105263357D01*
X102391598Y-105263357D02*
X102534455Y-105406214D01*
X102534455Y-105406214D02*
X102605884Y-105691928D01*
X102605884Y-105691928D02*
X102605884Y-106191928D01*
X102605884Y-106191928D02*
X102534455Y-106477642D01*
X102534455Y-106477642D02*
X102391598Y-106620500D01*
X102391598Y-106620500D02*
X102248741Y-106691928D01*
X102248741Y-106691928D02*
X101963027Y-106691928D01*
X101963027Y-106691928D02*
X101820170Y-106620500D01*
X101820170Y-106620500D02*
X101677312Y-106477642D01*
X101677312Y-106477642D02*
X101605884Y-106191928D01*
X101605884Y-106191928D02*
X101605884Y-105691928D01*
X101605884Y-105691928D02*
X101677312Y-105406214D01*
X101677312Y-105406214D02*
X101820170Y-105263357D01*
X101820170Y-105263357D02*
X101963027Y-105191928D01*
X104391598Y-106691928D02*
X104391598Y-105191928D01*
X104391598Y-105191928D02*
X104748741Y-105191928D01*
X104748741Y-105191928D02*
X104963027Y-105263357D01*
X104963027Y-105263357D02*
X105105884Y-105406214D01*
X105105884Y-105406214D02*
X105177313Y-105549071D01*
X105177313Y-105549071D02*
X105248741Y-105834785D01*
X105248741Y-105834785D02*
X105248741Y-106049071D01*
X105248741Y-106049071D02*
X105177313Y-106334785D01*
X105177313Y-106334785D02*
X105105884Y-106477642D01*
X105105884Y-106477642D02*
X104963027Y-106620500D01*
X104963027Y-106620500D02*
X104748741Y-106691928D01*
X104748741Y-106691928D02*
X104391598Y-106691928D01*
X105820170Y-106263357D02*
X106534456Y-106263357D01*
X105677313Y-106691928D02*
X106177313Y-105191928D01*
X106177313Y-105191928D02*
X106677313Y-106691928D01*
X106963027Y-105191928D02*
X107463027Y-106691928D01*
X107463027Y-106691928D02*
X107963027Y-105191928D01*
X108463026Y-106691928D02*
X108463026Y-105191928D01*
X109177312Y-106691928D02*
X109177312Y-105191928D01*
X109177312Y-105191928D02*
X109534455Y-105191928D01*
X109534455Y-105191928D02*
X109748741Y-105263357D01*
X109748741Y-105263357D02*
X109891598Y-105406214D01*
X109891598Y-105406214D02*
X109963027Y-105549071D01*
X109963027Y-105549071D02*
X110034455Y-105834785D01*
X110034455Y-105834785D02*
X110034455Y-106049071D01*
X110034455Y-106049071D02*
X109963027Y-106334785D01*
X109963027Y-106334785D02*
X109891598Y-106477642D01*
X109891598Y-106477642D02*
X109748741Y-106620500D01*
X109748741Y-106620500D02*
X109534455Y-106691928D01*
X109534455Y-106691928D02*
X109177312Y-106691928D01*
X112320169Y-105906214D02*
X112534455Y-105977642D01*
X112534455Y-105977642D02*
X112605884Y-106049071D01*
X112605884Y-106049071D02*
X112677312Y-106191928D01*
X112677312Y-106191928D02*
X112677312Y-106406214D01*
X112677312Y-106406214D02*
X112605884Y-106549071D01*
X112605884Y-106549071D02*
X112534455Y-106620500D01*
X112534455Y-106620500D02*
X112391598Y-106691928D01*
X112391598Y-106691928D02*
X111820169Y-106691928D01*
X111820169Y-106691928D02*
X111820169Y-105191928D01*
X111820169Y-105191928D02*
X112320169Y-105191928D01*
X112320169Y-105191928D02*
X112463027Y-105263357D01*
X112463027Y-105263357D02*
X112534455Y-105334785D01*
X112534455Y-105334785D02*
X112605884Y-105477642D01*
X112605884Y-105477642D02*
X112605884Y-105620500D01*
X112605884Y-105620500D02*
X112534455Y-105763357D01*
X112534455Y-105763357D02*
X112463027Y-105834785D01*
X112463027Y-105834785D02*
X112320169Y-105906214D01*
X112320169Y-105906214D02*
X111820169Y-105906214D01*
X113320169Y-105191928D02*
X113320169Y-106406214D01*
X113320169Y-106406214D02*
X113391598Y-106549071D01*
X113391598Y-106549071D02*
X113463027Y-106620500D01*
X113463027Y-106620500D02*
X113605884Y-106691928D01*
X113605884Y-106691928D02*
X113891598Y-106691928D01*
X113891598Y-106691928D02*
X114034455Y-106620500D01*
X114034455Y-106620500D02*
X114105884Y-106549071D01*
X114105884Y-106549071D02*
X114177312Y-106406214D01*
X114177312Y-106406214D02*
X114177312Y-105191928D01*
X115748741Y-106691928D02*
X115248741Y-105977642D01*
X114891598Y-106691928D02*
X114891598Y-105191928D01*
X114891598Y-105191928D02*
X115463027Y-105191928D01*
X115463027Y-105191928D02*
X115605884Y-105263357D01*
X115605884Y-105263357D02*
X115677313Y-105334785D01*
X115677313Y-105334785D02*
X115748741Y-105477642D01*
X115748741Y-105477642D02*
X115748741Y-105691928D01*
X115748741Y-105691928D02*
X115677313Y-105834785D01*
X115677313Y-105834785D02*
X115605884Y-105906214D01*
X115605884Y-105906214D02*
X115463027Y-105977642D01*
X115463027Y-105977642D02*
X114891598Y-105977642D01*
X117248741Y-106549071D02*
X117177313Y-106620500D01*
X117177313Y-106620500D02*
X116963027Y-106691928D01*
X116963027Y-106691928D02*
X116820170Y-106691928D01*
X116820170Y-106691928D02*
X116605884Y-106620500D01*
X116605884Y-106620500D02*
X116463027Y-106477642D01*
X116463027Y-106477642D02*
X116391598Y-106334785D01*
X116391598Y-106334785D02*
X116320170Y-106049071D01*
X116320170Y-106049071D02*
X116320170Y-105834785D01*
X116320170Y-105834785D02*
X116391598Y-105549071D01*
X116391598Y-105549071D02*
X116463027Y-105406214D01*
X116463027Y-105406214D02*
X116605884Y-105263357D01*
X116605884Y-105263357D02*
X116820170Y-105191928D01*
X116820170Y-105191928D02*
X116963027Y-105191928D01*
X116963027Y-105191928D02*
X117177313Y-105263357D01*
X117177313Y-105263357D02*
X117248741Y-105334785D01*
X117891598Y-106691928D02*
X117891598Y-105191928D01*
X118534456Y-106263357D02*
X119248742Y-106263357D01*
X118391599Y-106691928D02*
X118891599Y-105191928D01*
X118891599Y-105191928D02*
X119391599Y-106691928D01*
X120677313Y-105263357D02*
X120534456Y-105191928D01*
X120534456Y-105191928D02*
X120320170Y-105191928D01*
X120320170Y-105191928D02*
X120105884Y-105263357D01*
X120105884Y-105263357D02*
X119963027Y-105406214D01*
X119963027Y-105406214D02*
X119891598Y-105549071D01*
X119891598Y-105549071D02*
X119820170Y-105834785D01*
X119820170Y-105834785D02*
X119820170Y-106049071D01*
X119820170Y-106049071D02*
X119891598Y-106334785D01*
X119891598Y-106334785D02*
X119963027Y-106477642D01*
X119963027Y-106477642D02*
X120105884Y-106620500D01*
X120105884Y-106620500D02*
X120320170Y-106691928D01*
X120320170Y-106691928D02*
X120463027Y-106691928D01*
X120463027Y-106691928D02*
X120677313Y-106620500D01*
X120677313Y-106620500D02*
X120748741Y-106549071D01*
X120748741Y-106549071D02*
X120748741Y-106049071D01*
X120748741Y-106049071D02*
X120463027Y-106049071D01*
X121320170Y-106263357D02*
X122034456Y-106263357D01*
X121177313Y-106691928D02*
X121677313Y-105191928D01*
X121677313Y-105191928D02*
X122177313Y-106691928D01*
X123820169Y-106691928D02*
X123820169Y-105191928D01*
X123820169Y-105191928D02*
X124320169Y-106263357D01*
X124320169Y-106263357D02*
X124820169Y-105191928D01*
X124820169Y-105191928D02*
X124820169Y-106691928D01*
X125534455Y-105906214D02*
X126034455Y-105906214D01*
X126248741Y-106691928D02*
X125534455Y-106691928D01*
X125534455Y-106691928D02*
X125534455Y-105191928D01*
X125534455Y-105191928D02*
X126248741Y-105191928D01*
X126891598Y-106691928D02*
X126891598Y-105191928D01*
X126891598Y-105191928D02*
X127248741Y-105191928D01*
X127248741Y-105191928D02*
X127463027Y-105263357D01*
X127463027Y-105263357D02*
X127605884Y-105406214D01*
X127605884Y-105406214D02*
X127677313Y-105549071D01*
X127677313Y-105549071D02*
X127748741Y-105834785D01*
X127748741Y-105834785D02*
X127748741Y-106049071D01*
X127748741Y-106049071D02*
X127677313Y-106334785D01*
X127677313Y-106334785D02*
X127605884Y-106477642D01*
X127605884Y-106477642D02*
X127463027Y-106620500D01*
X127463027Y-106620500D02*
X127248741Y-106691928D01*
X127248741Y-106691928D02*
X126891598Y-106691928D01*
X128391598Y-106691928D02*
X128391598Y-105191928D01*
X129105884Y-106691928D02*
X129105884Y-105191928D01*
X129105884Y-105191928D02*
X129963027Y-106691928D01*
X129963027Y-106691928D02*
X129963027Y-105191928D01*
X130605885Y-106263357D02*
X131320171Y-106263357D01*
X130463028Y-106691928D02*
X130963028Y-105191928D01*
X130963028Y-105191928D02*
X131463028Y-106691928D01*
X133034456Y-105334785D02*
X133105884Y-105263357D01*
X133105884Y-105263357D02*
X133248742Y-105191928D01*
X133248742Y-105191928D02*
X133605884Y-105191928D01*
X133605884Y-105191928D02*
X133748742Y-105263357D01*
X133748742Y-105263357D02*
X133820170Y-105334785D01*
X133820170Y-105334785D02*
X133891599Y-105477642D01*
X133891599Y-105477642D02*
X133891599Y-105620500D01*
X133891599Y-105620500D02*
X133820170Y-105834785D01*
X133820170Y-105834785D02*
X132963027Y-106691928D01*
X132963027Y-106691928D02*
X133891599Y-106691928D01*
X134820170Y-105191928D02*
X134963027Y-105191928D01*
X134963027Y-105191928D02*
X135105884Y-105263357D01*
X135105884Y-105263357D02*
X135177313Y-105334785D01*
X135177313Y-105334785D02*
X135248741Y-105477642D01*
X135248741Y-105477642D02*
X135320170Y-105763357D01*
X135320170Y-105763357D02*
X135320170Y-106120500D01*
X135320170Y-106120500D02*
X135248741Y-106406214D01*
X135248741Y-106406214D02*
X135177313Y-106549071D01*
X135177313Y-106549071D02*
X135105884Y-106620500D01*
X135105884Y-106620500D02*
X134963027Y-106691928D01*
X134963027Y-106691928D02*
X134820170Y-106691928D01*
X134820170Y-106691928D02*
X134677313Y-106620500D01*
X134677313Y-106620500D02*
X134605884Y-106549071D01*
X134605884Y-106549071D02*
X134534455Y-106406214D01*
X134534455Y-106406214D02*
X134463027Y-106120500D01*
X134463027Y-106120500D02*
X134463027Y-105763357D01*
X134463027Y-105763357D02*
X134534455Y-105477642D01*
X134534455Y-105477642D02*
X134605884Y-105334785D01*
X134605884Y-105334785D02*
X134677313Y-105263357D01*
X134677313Y-105263357D02*
X134820170Y-105191928D01*
X136748741Y-106691928D02*
X135891598Y-106691928D01*
X136320169Y-106691928D02*
X136320169Y-105191928D01*
X136320169Y-105191928D02*
X136177312Y-105406214D01*
X136177312Y-105406214D02*
X136034455Y-105549071D01*
X136034455Y-105549071D02*
X135891598Y-105620500D01*
X138034455Y-105691928D02*
X138034455Y-106691928D01*
X137677312Y-105120500D02*
X137320169Y-106191928D01*
X137320169Y-106191928D02*
X138248740Y-106191928D01*
X139034454Y-105834785D02*
X138891597Y-105763357D01*
X138891597Y-105763357D02*
X138820168Y-105691928D01*
X138820168Y-105691928D02*
X138748740Y-105549071D01*
X138748740Y-105549071D02*
X138748740Y-105477642D01*
X138748740Y-105477642D02*
X138820168Y-105334785D01*
X138820168Y-105334785D02*
X138891597Y-105263357D01*
X138891597Y-105263357D02*
X139034454Y-105191928D01*
X139034454Y-105191928D02*
X139320168Y-105191928D01*
X139320168Y-105191928D02*
X139463026Y-105263357D01*
X139463026Y-105263357D02*
X139534454Y-105334785D01*
X139534454Y-105334785D02*
X139605883Y-105477642D01*
X139605883Y-105477642D02*
X139605883Y-105549071D01*
X139605883Y-105549071D02*
X139534454Y-105691928D01*
X139534454Y-105691928D02*
X139463026Y-105763357D01*
X139463026Y-105763357D02*
X139320168Y-105834785D01*
X139320168Y-105834785D02*
X139034454Y-105834785D01*
X139034454Y-105834785D02*
X138891597Y-105906214D01*
X138891597Y-105906214D02*
X138820168Y-105977642D01*
X138820168Y-105977642D02*
X138748740Y-106120500D01*
X138748740Y-106120500D02*
X138748740Y-106406214D01*
X138748740Y-106406214D02*
X138820168Y-106549071D01*
X138820168Y-106549071D02*
X138891597Y-106620500D01*
X138891597Y-106620500D02*
X139034454Y-106691928D01*
X139034454Y-106691928D02*
X139320168Y-106691928D01*
X139320168Y-106691928D02*
X139463026Y-106620500D01*
X139463026Y-106620500D02*
X139534454Y-106549071D01*
X139534454Y-106549071D02*
X139605883Y-106406214D01*
X139605883Y-106406214D02*
X139605883Y-106120500D01*
X139605883Y-106120500D02*
X139534454Y-105977642D01*
X139534454Y-105977642D02*
X139463026Y-105906214D01*
X139463026Y-105906214D02*
X139320168Y-105834785D01*
X140320168Y-106691928D02*
X140605882Y-106691928D01*
X140605882Y-106691928D02*
X140748739Y-106620500D01*
X140748739Y-106620500D02*
X140820168Y-106549071D01*
X140820168Y-106549071D02*
X140963025Y-106334785D01*
X140963025Y-106334785D02*
X141034454Y-106049071D01*
X141034454Y-106049071D02*
X141034454Y-105477642D01*
X141034454Y-105477642D02*
X140963025Y-105334785D01*
X140963025Y-105334785D02*
X140891597Y-105263357D01*
X140891597Y-105263357D02*
X140748739Y-105191928D01*
X140748739Y-105191928D02*
X140463025Y-105191928D01*
X140463025Y-105191928D02*
X140320168Y-105263357D01*
X140320168Y-105263357D02*
X140248739Y-105334785D01*
X140248739Y-105334785D02*
X140177311Y-105477642D01*
X140177311Y-105477642D02*
X140177311Y-105834785D01*
X140177311Y-105834785D02*
X140248739Y-105977642D01*
X140248739Y-105977642D02*
X140320168Y-106049071D01*
X140320168Y-106049071D02*
X140463025Y-106120500D01*
X140463025Y-106120500D02*
X140748739Y-106120500D01*
X140748739Y-106120500D02*
X140891597Y-106049071D01*
X140891597Y-106049071D02*
X140963025Y-105977642D01*
X140963025Y-105977642D02*
X141034454Y-105834785D01*
D10*
D11*
X110007200Y-129505800D02*
X110007200Y-132505800D01*
D10*
D11*
X174007200Y-129505800D02*
X174007200Y-136005800D01*
D14*
%TO.P,J25,1,Pin_1*%
%TO.N,DRVI101*%
X29500000Y-54000000D03*
D15*
%TO.P,J25,2,Pin_2*%
%TO.N,DRVI201*%
X29500000Y-56500000D03*
%TO.P,J25,3,Pin_3*%
%TO.N,DRVI301*%
X29500000Y-59000000D03*
%TO.P,J25,4,Pin_4*%
%TO.N,DRVI401*%
X29500000Y-61500000D03*
%TO.P,J25,5,Pin_5*%
%TO.N,Earth*%
X29500000Y-64000000D03*
%TD*%
D16*
%TO.P,J8,1,Pin_1*%
%TO.N,DRVO102*%
X76000000Y-51000000D03*
D17*
%TO.P,J8,2,Pin_2*%
%TO.N,DRVO202*%
X76000000Y-53500000D03*
%TD*%
D18*
%TO.P,J30,1,Pin_1*%
%TO.N,+12V*%
X68000000Y-34000000D03*
D15*
%TO.P,J30,2,Pin_2*%
%TO.N,Earth*%
X68000000Y-31500000D03*
%TO.P,J30,3,Pin_3*%
%TO.N,+5V*%
X68000000Y-29000000D03*
%TD*%
D16*
%TO.P,J5,1,Pin_1*%
%TO.N,DRVO301*%
X76000000Y-42000000D03*
D17*
%TO.P,J5,2,Pin_2*%
%TO.N,DRVO401*%
X76000000Y-44500000D03*
%TD*%
D19*
%TO.P,J4,1,Pin_1*%
%TO.N,+3.3V*%
X22000000Y-30637280D03*
D20*
%TO.P,J4,2,Pin_2*%
%TO.N,PH_A01*%
X24500000Y-30637280D03*
%TO.P,J4,3,Pin_3*%
%TO.N,PH_B01*%
X27000000Y-30637280D03*
%TO.P,J4,4,Pin_4*%
%TO.N,Earth*%
X29500000Y-30637280D03*
%TD*%
D19*
%TO.P,J9,1,Pin_1*%
%TO.N,+3.3V*%
X22000000Y-45637280D03*
D20*
%TO.P,J9,2,Pin_2*%
%TO.N,PH_A03*%
X24500000Y-45637280D03*
%TO.P,J9,3,Pin_3*%
%TO.N,PH_B03*%
X27000000Y-45637280D03*
%TO.P,J9,4,Pin_4*%
%TO.N,Earth*%
X29500000Y-45637280D03*
%TD*%
D21*
%TO.P,J1,1,Pin_1*%
%TO.N,+12V*%
X69000000Y-73337280D03*
D22*
%TO.P,J1,2,Pin_2*%
%TO.N,Earth*%
X69000000Y-79637280D03*
D23*
%TO.P,J1,3,Pin_3*%
%TO.N,unconnected-(J1-Pin_3-Pad3)*%
X73800000Y-76237280D03*
%TD*%
D14*
%TO.P,J26,1,Pin_1*%
%TO.N,DRVO101*%
X76000000Y-28250000D03*
D15*
%TO.P,J26,2,Pin_2*%
%TO.N,DRVO201*%
X76000000Y-30750000D03*
%TO.P,J26,3,Pin_3*%
%TO.N,DRVO301*%
X76000000Y-33250000D03*
%TO.P,J26,4,Pin_4*%
%TO.N,DRVO401*%
X76000000Y-35750000D03*
%TD*%
D24*
%TO.P,U1,1,3V3*%
%TO.N,+3.3V*%
X37000000Y-24300000D03*
D25*
%TO.P,U1,2,3V3*%
X37000000Y-26840000D03*
%TO.P,U1,3,CHIP_PU*%
%TO.N,unconnected-(U1-CHIP_PU-Pad3)*%
X37000000Y-29380000D03*
%TO.P,U1,4,GPIO4/ADC1_CH3*%
%TO.N,PH_A01*%
X37000000Y-31920000D03*
%TO.P,U1,5,GPIO5/ADC1_CH4*%
%TO.N,PH_B01*%
X37000000Y-34460000D03*
%TO.P,U1,6,GPIO6/ADC1_CH5*%
%TO.N,PH_A02*%
X37000000Y-37000000D03*
%TO.P,U1,7,GPIO7/ADC1_CH6*%
%TO.N,PH_B02*%
X37000000Y-39540000D03*
%TO.P,U1,8,GPIO15/ADC2_CH4/32K_P*%
%TO.N,PH_A03*%
X37000000Y-42080000D03*
%TO.P,U1,9,GPIO16/ADC2_CH5/32K_N*%
%TO.N,PH_B03*%
X37000000Y-44620000D03*
%TO.P,U1,10,GPIO17/ADC2_CH6*%
%TO.N,DRVI102*%
X37000000Y-47160000D03*
%TO.P,U1,11,GPIO18/ADC2_CH7*%
%TO.N,DRVI202*%
X37000000Y-49700000D03*
%TO.P,U1,12,GPIO8/ADC1_CH7*%
%TO.N,DRVI101*%
X37000000Y-52240000D03*
%TO.P,U1,13,GPIO3/ADC1_CH2*%
%TO.N,DRVI201*%
X37000000Y-54780000D03*
%TO.P,U1,14,GPIO46*%
%TO.N,unconnected-(U1-GPIO46-Pad14)*%
X37000000Y-57320000D03*
%TO.P,U1,15,GPIO9/ADC1_CH8*%
%TO.N,DRVI301*%
X37000000Y-59860000D03*
%TO.P,U1,16,GPIO10/ADC1_CH9*%
%TO.N,DRVI401*%
X37000000Y-62400000D03*
%TO.P,U1,17,GPIO11/ADC2_CH0*%
%TO.N,L_ENC_1*%
X37000000Y-64940000D03*
%TO.P,U1,18,GPIO12/ADC2_CH1*%
%TO.N,L_ENC_2*%
X37000000Y-67480000D03*
%TO.P,U1,19,GPIO13/ADC2_CH2*%
%TO.N,L_ENC_3*%
X37000000Y-70020000D03*
%TO.P,U1,20,GPIO14/ADC2_CH3*%
%TO.N,L_ROS*%
X36996320Y-72557280D03*
%TO.P,U1,21,5V*%
%TO.N,+5V*%
X36996320Y-75097280D03*
%TO.P,U1,22,GND*%
%TO.N,Earth*%
X36996320Y-77637280D03*
%TO.P,U1,23,GND*%
X59860000Y-77640000D03*
%TO.P,U1,24,GND*%
X59860000Y-75100000D03*
%TO.P,U1,25,GPIO19/USB_D-*%
%TO.N,unconnected-(U1-GPIO19{slash}USB_D--Pad25)*%
X59860000Y-72560000D03*
%TO.P,U1,26,GPIO20/USB_D+*%
%TO.N,unconnected-(U1-GPIO20{slash}USB_D+-Pad26)*%
X59860000Y-70020000D03*
%TO.P,U1,27,GPIO21*%
%TO.N,unconnected-(U1-GPIO21-Pad27)*%
X59860000Y-67480000D03*
%TO.P,U1,28,GPIO47*%
%TO.N,unconnected-(U1-GPIO47-Pad28)*%
X59860000Y-64940000D03*
%TO.P,U1,29,GPIO48*%
%TO.N,unconnected-(U1-GPIO48-Pad29)*%
X59860000Y-62400000D03*
%TO.P,U1,30,GPIO45*%
%TO.N,unconnected-(U1-GPIO45-Pad30)*%
X59860000Y-59860000D03*
%TO.P,U1,31,GPIO0*%
%TO.N,unconnected-(U1-GPIO0-Pad31)*%
X59860000Y-57320000D03*
%TO.P,U1,32,GPIO35*%
%TO.N,unconnected-(U1-GPIO35-Pad32)*%
X59860000Y-54780000D03*
%TO.P,U1,33,GPIO36*%
%TO.N,unconnected-(U1-GPIO36-Pad33)*%
X59860000Y-52240000D03*
%TO.P,U1,34,GPIO37*%
%TO.N,unconnected-(U1-GPIO37-Pad34)*%
X59860000Y-49700000D03*
%TO.P,U1,35,GPIO38*%
%TO.N,unconnected-(U1-GPIO38-Pad35)*%
X59860000Y-47160000D03*
%TO.P,U1,36,GPIO39/MTCK*%
%TO.N,unconnected-(U1-GPIO39{slash}MTCK-Pad36)*%
X59860000Y-44620000D03*
%TO.P,U1,37,GPIO40/MTDO*%
%TO.N,unconnected-(U1-GPIO40{slash}MTDO-Pad37)*%
X59860000Y-42080000D03*
%TO.P,U1,38,GPIO41/MTDI*%
%TO.N,unconnected-(U1-GPIO41{slash}MTDI-Pad38)*%
X59860000Y-39540000D03*
%TO.P,U1,39,GPIO42/MTMS*%
%TO.N,unconnected-(U1-GPIO42{slash}MTMS-Pad39)*%
X59860000Y-37000000D03*
%TO.P,U1,40,GPIO2/ADC1_CH1*%
%TO.N,unconnected-(U1-GPIO2{slash}ADC1_CH1-Pad40)*%
X59860000Y-34460000D03*
%TO.P,U1,41,GPIO1/ADC1_CH0*%
%TO.N,unconnected-(U1-GPIO1{slash}ADC1_CH0-Pad41)*%
X59860000Y-31920000D03*
%TO.P,U1,42,GPIO44/U0RXD*%
%TO.N,unconnected-(U1-GPIO44{slash}U0RXD-Pad42)*%
X59860000Y-29380000D03*
%TO.P,U1,43,GPIO43/U0TXD*%
%TO.N,unconnected-(U1-GPIO43{slash}U0TXD-Pad43)*%
X59860000Y-26840000D03*
%TO.P,U1,44,GND*%
%TO.N,Earth*%
X59860000Y-24300000D03*
%TD*%
D18*
%TO.P,J29,1,Pin_1*%
%TO.N,+12V*%
X68000000Y-46000000D03*
D15*
%TO.P,J29,2,Pin_2*%
%TO.N,Earth*%
X68000000Y-43500000D03*
%TO.P,J29,3,Pin_3*%
%TO.N,+5V*%
X68000000Y-41000000D03*
%TD*%
D19*
%TO.P,J6,1,Pin_1*%
%TO.N,+3.3V*%
X22000000Y-38137280D03*
D20*
%TO.P,J6,2,Pin_2*%
%TO.N,PH_A02*%
X24500000Y-38137280D03*
%TO.P,J6,3,Pin_3*%
%TO.N,PH_B02*%
X27000000Y-38137280D03*
%TO.P,J6,4,Pin_4*%
%TO.N,Earth*%
X29500000Y-38137280D03*
%TD*%
D14*
%TO.P,J27,1,Pin_1*%
%TO.N,DRVO102*%
X76000000Y-60000000D03*
D15*
%TO.P,J27,2,Pin_2*%
%TO.N,DRVO202*%
X76000000Y-62500000D03*
%TO.P,J27,3,Pin_3*%
%TO.N,DRVO302*%
X76000000Y-65000000D03*
%TO.P,J27,4,Pin_4*%
%TO.N,DRVO402*%
X76000000Y-67500000D03*
%TD*%
D26*
%TO.P,REF\u002A\u002A,1*%
%TO.N,N/C*%
X78000000Y-84500000D03*
D27*
X78000000Y-84500000D03*
%TD*%
D14*
%TO.P,J28,1,Pin_1*%
%TO.N,DRVI102*%
X21500000Y-54000000D03*
D15*
%TO.P,J28,2,Pin_2*%
%TO.N,DRVI202*%
X21500000Y-56500000D03*
%TO.P,J28,3,Pin_3*%
%TO.N,DRVI302*%
X21500000Y-59000000D03*
%TO.P,J28,4,Pin_4*%
%TO.N,DRVI402*%
X21500000Y-61500000D03*
%TO.P,J28,5,Pin_5*%
%TO.N,Earth*%
X21500000Y-64000000D03*
%TD*%
D26*
%TO.P,REF\u002A\u002A,1*%
%TO.N,N/C*%
X18500000Y-18500000D03*
D27*
X18500000Y-18500000D03*
%TD*%
D28*
%TO.P,J3,1,Pin_1*%
%TO.N,DRVO101*%
X75000000Y-22000000D03*
D17*
%TO.P,J3,2,Pin_2*%
%TO.N,DRVO201*%
X75000000Y-19500000D03*
%TD*%
M02*
